<svg width="18" height="19" viewBox="0 0 18 19" fill="none" xmlns="http://www.w3.org/2000/svg">
<path d="M1.5 5C1.5 3.61929 2.61929 2.5 4 2.5H14C15.3807 2.5 16.5 3.61929 16.5 5V15C16.5 16.3807 15.3807 17.5 14 17.5H4C2.61929 17.5 1.5 16.3807 1.5 15V5Z" stroke="#7E8189" stroke-width="1.5"/>
<path d="M1.5 6.66667H16.5" stroke="#7E8189" stroke-width="1.5" stroke-linejoin="round"/>
<path d="M12.7502 1.25L12.7502 3.75" stroke="#7E8189" stroke-width="1.5" stroke-linecap="round" stroke-linejoin="round"/>
<path d="M5.25016 1.25L5.25016 3.75" stroke="#7E8189" stroke-width="1.5" stroke-linecap="round" stroke-linejoin="round"/>
<path d="M4.4165 9.99935H5.24984" stroke="#7E8189" stroke-width="1.5" stroke-linecap="round" stroke-linejoin="round"/>
<path d="M8.58301 9.99935H9.41634" stroke="#7E8189" stroke-width="1.5" stroke-linecap="round" stroke-linejoin="round"/>
<path d="M12.75 9.99935H13.5833" stroke="#7E8189" stroke-width="1.5" stroke-linecap="round" stroke-linejoin="round"/>
<path d="M4.4165 13.3324H5.24984" stroke="#7E8189" stroke-width="1.5" stroke-linecap="round" stroke-linejoin="round"/>
<path d="M8.58301 13.3324H9.41634" stroke="#7E8189" stroke-width="1.5" stroke-linecap="round" stroke-linejoin="round"/>
<path d="M12.75 13.3324H13.5833" stroke="#7E8189" stroke-width="1.5" stroke-linecap="round" stroke-linejoin="round"/>
</svg>
