<svg width="20" height="20" viewBox="0 0 20 20" fill="none" xmlns="http://www.w3.org/2000/svg">
<path d="M10.3681 4.00326L5.77841 10.1036C5.12446 10.9728 5.74556 12.217 6.83337 12.217H8.77032L7.97325 15.1529C7.68872 16.2009 9.06122 16.8742 9.71649 16.0096L14.218 10.0688C14.8768 9.20017 14.2565 7.95142 13.1661 7.95142H11.2658L12.1536 4.89689C12.4678 3.81638 11.0457 3.10275 10.3681 4.00326ZM13.1661 9.12334C13.2896 9.12334 13.3588 9.26248 13.2843 9.36056C13.2843 9.36064 13.2842 9.36076 13.2841 9.36084L9.35071 14.5519L10.102 11.7846C10.2031 11.4122 9.92216 11.0452 9.53653 11.0452H6.83337C6.71044 11.0452 6.64087 10.9065 6.71481 10.8082L10.7892 5.39275L9.92267 8.37384C9.87122 8.55084 9.90606 8.74173 10.0167 8.88916C10.1274 9.03654 10.301 9.1233 10.4853 9.1233H13.1661V9.12334Z" fill="#7E8189"/>
<path d="M2.99666 15.9581C4.39373 17.5988 6.32666 18.7013 8.43932 19.0625C8.75779 19.117 9.06104 18.9032 9.11564 18.5838C9.17018 18.2648 8.95584 17.962 8.63689 17.9075C4.77791 17.2475 1.97705 13.922 1.97705 10C1.97705 6.5275 4.17295 3.52293 7.35471 2.42172L7.14486 2.79418C6.98604 3.07614 7.0858 3.43344 7.36775 3.59227C7.64979 3.75117 8.00705 3.65125 8.16588 3.36942L9.04861 1.80258C9.20463 1.52559 9.10982 1.17563 8.8408 1.01324L7.30088 0.0842997C7.02373 -0.0828096 6.66365 0.00621382 6.4965 0.283362C6.32936 0.560433 6.41846 0.92055 6.69553 1.08774L7.03791 1.2943C5.48002 1.82524 4.07783 2.77227 2.99666 4.04188C1.58346 5.70141 0.805176 7.81735 0.805176 10C0.805176 12.1827 1.58346 14.2986 2.99666 15.9581Z" fill="#7E8189"/>
<path d="M11.5603 0.937186C11.2414 0.882654 10.9385 1.09699 10.884 1.41597C10.8294 1.73492 11.0438 2.03773 11.3628 2.09226C15.2217 2.75222 18.0226 6.07777 18.0226 9.99973C18.0226 13.4722 15.8267 16.4768 12.6449 17.578L12.8547 17.2055C13.0136 16.9236 12.9138 16.5662 12.6319 16.4074C12.3499 16.2486 11.9926 16.3483 11.8338 16.6303L10.951 18.1971C10.7954 18.4732 10.8885 18.8232 11.1588 18.9864L12.6987 19.9154C12.976 20.0827 13.336 19.9933 13.5031 19.7164C13.6702 19.4393 13.5811 19.0792 13.304 18.912L12.9616 18.7054C14.5195 18.1745 15.9217 17.2275 17.0029 15.9578C18.4161 14.2983 19.1944 12.1823 19.1944 9.99969C19.1944 7.81707 18.4161 5.70109 17.0029 4.04156C15.6059 2.40097 13.6729 1.29847 11.5603 0.937186Z" fill="#7E8189"/>
</svg>
