<svg width="16" height="19" viewBox="0 0 16 19" fill="none" xmlns="http://www.w3.org/2000/svg">
<path d="M14.3125 8.08333C14.3125 10.3393 13.0177 12.7061 11.4926 14.5435C10.7367 15.4542 9.94269 16.2122 9.26237 16.7378C8.92169 17.001 8.61777 17.1996 8.36822 17.3298C8.10213 17.4687 7.95379 17.5 7.90625 17.5V18.5C8.20403 18.5 8.53048 18.3732 8.83093 18.2163C9.1479 18.0509 9.50224 17.8162 9.87377 17.5291C10.6179 16.9542 11.464 16.1436 12.2621 15.1822C13.8448 13.2754 15.3125 10.6839 15.3125 8.08333H14.3125ZM7.90625 17.5C7.85872 17.5 7.71037 17.4687 7.44428 17.3298C7.19473 17.1996 6.89081 17.001 6.55013 16.7378C5.86981 16.2122 5.07577 15.4542 4.31989 14.5435C2.7948 12.7061 1.5 10.3393 1.5 8.08333H0.5C0.5 10.6839 1.9677 13.2754 3.55042 15.1822C4.34845 16.1436 5.19464 16.9542 5.93873 17.5291C6.31026 17.8162 6.6646 18.0509 6.98157 18.2163C7.28202 18.3732 7.60847 18.5 7.90625 18.5V17.5ZM1.5 8.08333C1.5 4.43545 4.38003 1.5 7.90625 1.5V0.5C3.80403 0.5 0.5 3.90718 0.5 8.08333H1.5ZM7.90625 1.5C11.4325 1.5 14.3125 4.43545 14.3125 8.08333H15.3125C15.3125 3.90718 12.0085 0.5 7.90625 0.5V1.5Z" fill="#7E8189"/>
<circle r="2.65625" transform="matrix(-1 0 0 1 7.90625 7.90625)" stroke="#7E8189"/>
</svg>
