<svg width="20" height="20" viewBox="0 0 20 20" fill="none" xmlns="http://www.w3.org/2000/svg">
<path d="M16.4844 8.83068H12.1875V5.08068H10.7812C11.2165 4.49959 11.4504 3.79239 11.4474 3.06635C11.4474 1.98666 10.9365 0.972168 10.1141 0.418848L9.76519 0.184082L9.41633 0.418848C8.59375 0.972246 8.08301 1.9867 8.08301 3.06635C8.08008 3.7924 8.31403 4.49959 8.74937 5.08065H7.1875V8.83064H3.51562C2.91495 8.83133 2.33908 9.07025 1.91434 9.49499C1.4896 9.91972 1.25068 10.4956 1.25 11.0963V18.1249C1.25037 18.4564 1.38219 18.7741 1.61653 19.0084C1.85087 19.2428 2.16859 19.3746 2.5 19.3749H17.5C17.8314 19.3746 18.1491 19.2428 18.3835 19.0084C18.6178 18.7741 18.7496 18.4564 18.75 18.1249V11.0963C18.7493 10.4956 18.5104 9.91976 18.0857 9.49502C17.6609 9.07028 17.085 8.83137 16.4844 8.83068ZM9.76519 1.77893C10.0382 2.11814 10.1974 2.57838 10.1974 3.06639C10.1974 3.55439 10.0382 4.01467 9.76519 4.35385C9.49219 4.01467 9.33301 3.55439 9.33301 3.06635C9.33301 2.5783 9.49219 2.11814 9.76519 1.77893ZM8.4375 6.33068H10.9375V8.83068H8.4375V6.33068ZM2.5 11.0963C2.50031 10.827 2.60741 10.5689 2.79781 10.3785C2.98821 10.1881 3.24636 10.081 3.51562 10.0807H16.4844C16.7536 10.081 17.0118 10.1881 17.2022 10.3785C17.3926 10.5689 17.4997 10.827 17.5 11.0963V12.3298L16.6562 12.7021C16.4912 12.7747 16.3129 12.8122 16.1326 12.8122C15.9524 12.8122 15.774 12.7747 15.609 12.7021L14.1406 12.0542L12.6719 12.7021C12.5069 12.7747 12.3285 12.8122 12.1482 12.8122C11.968 12.8122 11.7896 12.7747 11.6246 12.7021L10.1562 12.0541L8.6875 12.702C8.52248 12.7746 8.34416 12.8121 8.16387 12.8121C7.98357 12.8121 7.80525 12.7746 7.64023 12.702L6.17188 12.0542L4.7034 12.702C4.53838 12.7746 4.36006 12.8121 4.17977 12.8121C3.99947 12.8121 3.82115 12.7746 3.65613 12.702L2.5 12.192V11.0963ZM17.5 18.1249H2.5V13.5583L3.15148 13.8457C3.47552 13.9883 3.82567 14.0619 4.17969 14.0619C4.53371 14.0619 4.88385 13.9883 5.20789 13.8457L6.17188 13.4204L7.1359 13.8457C7.45993 13.9883 7.81007 14.0619 8.16408 14.0619C8.51809 14.0619 8.86824 13.9883 9.19227 13.8457L10.1562 13.4204L11.1202 13.8457C11.4442 13.9883 11.7944 14.0619 12.1484 14.0619C12.5024 14.0619 12.8525 13.9883 13.1765 13.8457L14.1406 13.4204L15.1046 13.8457C15.4286 13.9883 15.7788 14.0619 16.1328 14.0619C16.4868 14.0619 16.8369 13.9883 17.1609 13.8457L17.5005 13.6959L17.5008 18.1249H17.5Z" fill="#434449"/>
</svg>
