<svg width="24" height="24" viewBox="0 0 24 24" fill="none" xmlns="http://www.w3.org/2000/svg">
<path d="M10 4C9.51037 4 9.04079 4.19451 8.69457 4.54073C8.34835 4.88695 8.15385 5.35652 8.15385 5.84615V6.46154H3.84615C3.35652 6.46154 2.88695 6.65604 2.54073 7.00226C2.1945 7.34849 2 7.81806 2 8.30769L2 18.1538C2 18.6435 2.1945 19.1131 2.54073 19.4593C2.88695 19.8055 3.35652 20 3.84615 20H19.8462C20.3358 20 20.8054 19.8055 21.1516 19.4593C21.4978 19.1131 21.6923 18.6435 21.6923 18.1538V8.30769C21.6923 7.81806 21.4978 7.34849 21.1516 7.00226C20.8054 6.65604 20.3358 6.46154 19.8462 6.46154H15.5385V5.84615C15.5385 5.35652 15.344 4.88695 14.9977 4.54073C14.6515 4.19451 14.1819 4 13.6923 4H10ZM10 5.23077H13.6923C13.8555 5.23077 14.012 5.2956 14.1274 5.41101C14.2429 5.52642 14.3077 5.68294 14.3077 5.84615V6.46154H9.38461V5.84615C9.38461 5.68294 9.44945 5.52642 9.56486 5.41101C9.68026 5.2956 9.83679 5.23077 10 5.23077ZM12.3212 13.7403L20.4615 11.5705V18.1538C20.4615 18.3171 20.3967 18.4736 20.2813 18.589C20.1659 18.7044 20.0094 18.7692 19.8462 18.7692H3.84615C3.68294 18.7692 3.52642 18.7044 3.41101 18.589C3.2956 18.4736 3.23077 18.3171 3.23077 18.1538V11.5692L11.3711 13.7403C11.6824 13.8232 12.0099 13.8232 12.3212 13.7403ZM3.84615 7.69231H19.8462C20.0094 7.69231 20.1659 7.75714 20.2813 7.87255C20.3967 7.98796 20.4615 8.14448 20.4615 8.30769V10.2966L12.0049 12.5514C11.9009 12.5792 11.7914 12.5792 11.6874 12.5514L3.23077 10.2966V8.30769C3.23077 8.14448 3.2956 7.98796 3.41101 7.87255C3.52642 7.75714 3.68294 7.69231 3.84615 7.69231Z" fill="#434449"/>
</svg>
