<svg width="22" height="20" viewBox="0 0 22 20" fill="none" xmlns="http://www.w3.org/2000/svg">
<path d="M1 6.42871C1 5.32414 1.89543 4.42871 3 4.42871H19C20.1046 4.42871 21 5.32414 21 6.42871V8.08347C21 8.96669 20.4207 9.74534 19.5747 9.99913L12.1494 12.2267C11.3996 12.4516 10.6004 12.4516 9.85061 12.2267L2.42531 9.99913C1.57934 9.74534 1 8.96669 1 8.08347V6.42871Z" stroke="#2B3F6C" stroke-width="1.5"/>
<path d="M11 9.5717L11 7.85742" stroke="#2B3F6C" stroke-width="1.5" stroke-linecap="round" stroke-linejoin="round"/>
<path d="M1.8335 9.57129L1.8335 14.9998C1.8335 17.2089 3.62436 18.9998 5.8335 18.9998H16.1668C18.376 18.9998 20.1668 17.2089 20.1668 14.9998V9.57129" stroke="#2B3F6C" stroke-width="1.5"/>
<path d="M14.3334 4.42855V3C14.3334 1.89543 13.438 1 12.3334 1H9.66675C8.56218 1 7.66675 1.89543 7.66675 3L7.66675 4.42855" stroke="#2B3F6C" stroke-width="1.5"/>
</svg>
