<svg width="40" height="40" viewBox="0 0 40 40" fill="none" xmlns="http://www.w3.org/2000/svg">
<path d="M38.6097 16.8768L20.4626 5.13718C20.1804 4.95509 19.8172 4.95509 19.5345 5.13718L12.9991 9.36591V5.85434C12.9991 5.38226 12.6163 5 12.1447 5H7.89354C7.42194 5 7.0392 5.38226 7.0392 5.85434V13.1714C7.0392 13.1733 7.03871 13.1763 7.03871 13.1782V13.2231L1.39031 16.8768C0.993899 17.1331 0.881127 17.6623 1.13694 18.0582C1.30048 18.3121 1.57485 18.4492 1.85507 18.4492C2.01422 18.4492 2.17484 18.4043 2.31837 18.3121L7.03822 15.2579V30.635H2.46483C1.99323 30.635 1.61049 31.0173 1.61049 31.4894C1.61049 31.9615 1.99323 32.3437 2.46483 32.3437H10.9228C11.3944 32.3437 11.7771 31.9615 11.7771 31.4894C11.7771 31.0173 11.3944 30.635 10.9228 30.635H8.7469V14.1526L12.6105 11.6526C12.6168 11.6487 12.6232 11.6448 12.63 11.6404L19.9998 6.87173L31.2546 14.1531V30.6345H29.3399C28.8678 30.6345 28.4855 31.0168 28.4855 31.4889C28.4855 31.961 28.8678 32.3432 29.3399 32.3432H37.5361C38.0082 32.3432 38.3905 31.961 38.3905 31.4889C38.3905 31.0168 38.0082 30.6345 37.5361 30.6345H32.9632V15.2594L37.6821 18.3116C38.0771 18.5679 38.6072 18.4536 38.8635 18.0577C39.1189 17.6623 39.0056 17.1331 38.6097 16.8768ZM11.2904 10.4712L8.74787 12.1169V6.70819H11.2904V10.4712Z" fill="black"/>
<path d="M13.3647 26.4786C13.5092 26.7696 13.8055 26.9536 14.1302 26.9536H17.3015V33.6462C17.3015 34.0134 17.5358 34.3395 17.8839 34.4566C17.9732 34.4864 18.065 34.5006 18.1558 34.5006C18.4185 34.5006 18.6728 34.3795 18.8373 34.1623L26.6367 23.8472C26.8325 23.588 26.8647 23.2419 26.7202 22.9509C26.5757 22.6614 26.2798 22.4774 25.9557 22.4774H22.368L23.0314 15.6119C23.068 15.2326 22.8483 14.8737 22.4924 14.7346C22.1375 14.5955 21.7323 14.7078 21.5009 15.0119L13.4506 25.5813C13.2544 25.84 13.2207 26.1881 13.3647 26.4786ZM21.042 18.4351L20.5768 23.2492C20.5538 23.4894 20.6329 23.7276 20.7945 23.9063C20.9566 24.0845 21.1865 24.1855 21.4272 24.1855H24.2382L19.0107 31.1003V26.0993C19.0107 25.6272 18.6284 25.2449 18.1563 25.2449H15.855L21.042 18.4351Z" fill="black"/>
</svg>
