<svg width="40" height="40" viewBox="0 0 40 40" fill="none" xmlns="http://www.w3.org/2000/svg">
<path d="M14.5436 31.2655V32.2306C14.5436 33.307 15.2318 34.2235 16.192 34.5623V35.5274C16.192 36.8931 17.2989 38 18.6646 38H21.9614C23.3271 38 24.434 36.8931 24.434 35.5274V34.5623C25.3942 34.2235 26.0824 33.307 26.0824 32.2306V31.2655C27.0426 30.9267 27.7308 30.0102 27.7308 28.9338C27.7308 28.5052 27.7308 28.061 27.7423 27.6975C27.7423 27.6892 27.7423 27.6802 27.7423 27.6719C27.7423 27.4214 27.8577 27.1848 28.0555 27.0307C28.0588 27.0282 28.0629 27.0249 28.0662 27.0225C30.8767 24.7559 32.676 21.2836 32.676 17.395C32.676 10.5714 27.1365 5.03198 20.313 5.03198C13.4894 5.03198 7.94995 10.5714 7.94995 17.395C7.94995 21.2836 9.74835 24.7551 12.5679 27.0093C12.5712 27.0118 12.5737 27.0142 12.577 27.0167C12.7773 27.1725 12.8952 27.4123 12.8952 27.667V28.9338C12.8952 30.0102 13.5834 30.9267 14.5436 31.2655ZM22.7856 34.7032V35.5274C22.7856 35.9824 22.4163 36.3516 21.9614 36.3516H18.6646C18.2096 36.3516 17.8404 35.9824 17.8404 35.5274V34.7032H22.7856ZM24.434 31.4064V32.2306C24.434 32.6856 24.0647 33.0548 23.6098 33.0548H17.0162C16.5612 33.0548 16.192 32.6856 16.192 32.2306V31.4064H24.434ZM14.5436 28.9338V27.6662C14.5436 26.9063 14.1933 26.1884 13.5949 25.7202C11.1544 23.7677 9.59835 20.7618 9.59835 17.395C9.59835 11.4813 14.3993 6.68038 20.313 6.68038C26.2266 6.68038 31.0276 11.4813 31.0276 17.395C31.0276 20.7618 29.4707 23.7677 27.0393 25.7326C26.4442 26.2007 26.098 26.9087 26.0939 27.6596C26.0824 28.0338 26.0824 28.492 26.0824 28.9338C26.0824 29.3888 25.7131 29.758 25.2582 29.758H15.3678C14.9128 29.758 14.5436 29.3888 14.5436 28.9338Z" fill="black"/>
<path d="M22.7217 14.8734C22.7217 15.0746 22.8016 15.2675 22.9438 15.4097C23.086 15.5519 23.2789 15.6318 23.4801 15.6318C23.6812 15.6318 23.8741 15.5519 24.0163 15.4097C24.1585 15.2675 24.2384 15.0746 24.2384 14.8734C24.2373 13.9997 23.935 13.153 23.3824 12.4761C22.8299 11.7992 22.0609 11.3336 21.205 11.1575V11.0817C21.205 10.8806 21.1251 10.6877 20.9829 10.5455C20.8407 10.4033 20.6478 10.3234 20.4467 10.3234C20.2455 10.3234 20.0526 10.4033 19.9104 10.5455C19.7682 10.6877 19.6883 10.8806 19.6883 11.0817V11.1575C18.8312 11.3316 18.0605 11.7966 17.507 12.4738C16.9535 13.1511 16.6511 13.9988 16.6511 14.8734C16.6511 15.7481 16.9535 16.5958 17.507 17.2731C18.0605 17.9503 18.8312 18.4153 19.6883 18.5894V23.0765C19.2461 22.9202 18.8631 22.631 18.5916 22.2486C18.3201 21.8662 18.1734 21.4092 18.1716 20.9402C18.1716 20.7391 18.0917 20.5462 17.9495 20.404C17.8073 20.2618 17.6144 20.1819 17.4133 20.1819C17.2121 20.1819 17.0193 20.2618 16.877 20.404C16.7348 20.5462 16.6549 20.7391 16.6549 20.9402C16.656 21.814 16.9583 22.6607 17.5109 23.3376C18.0634 24.0144 18.8325 24.4801 19.6883 24.6561V24.732C19.6883 24.9331 19.7682 25.126 19.9104 25.2682C20.0526 25.4104 20.2455 25.4903 20.4467 25.4903C20.6478 25.4903 20.8407 25.4104 20.9829 25.2682C21.1251 25.126 21.205 24.9331 21.205 24.732V24.6561C22.0622 24.4821 22.8328 24.0171 23.3863 23.3398C23.9398 22.6626 24.2422 21.8149 24.2422 20.9402C24.2422 20.0656 23.9398 19.2178 23.3863 18.5406C22.8328 17.8634 22.0622 17.3984 21.205 17.2243V12.7379C21.6471 12.8942 22.03 13.1833 22.3015 13.5655C22.573 13.9478 22.7198 14.4046 22.7217 14.8734ZM18.1716 14.8734C18.1736 14.4046 18.3203 13.9478 18.5918 13.5655C18.8633 13.1833 19.2463 12.8942 19.6883 12.7379V17.009C19.2463 16.8527 18.8633 16.5636 18.5918 16.1814C18.3203 15.7991 18.1736 15.3423 18.1716 14.8734ZM22.7217 20.9402C22.7198 21.4091 22.573 21.8659 22.3015 22.2482C22.03 22.6304 21.6471 22.9195 21.205 23.0757V18.8047C21.6471 18.961 22.03 19.25 22.3015 19.6323C22.573 20.0146 22.7198 20.4714 22.7217 20.9402Z" fill="black"/>
<path d="M3.8242 18.2186H5.4726C5.92756 18.2186 6.2968 17.8493 6.2968 17.3944C6.2968 16.9394 5.92756 16.5702 5.4726 16.5702H3.8242C3.36924 16.5702 3 16.9394 3 17.3944C3 17.8493 3.36924 18.2186 3.8242 18.2186Z" fill="black"/>
<path d="M6.43286 26.3423L7.86037 25.5181C8.25436 25.2906 8.38951 24.7863 8.16203 24.3923C7.93455 23.9983 7.43016 23.8631 7.03617 24.0906L5.60865 24.9148C5.21466 25.1423 5.07952 25.6467 5.307 26.0407C5.53448 26.4347 6.03886 26.5698 6.43286 26.3423Z" fill="black"/>
<path d="M34.99 24.9298L33.5624 24.1056C33.1685 23.8781 32.6641 24.0133 32.4366 24.4073C32.2091 24.8012 32.3443 25.3056 32.7382 25.5331L34.1658 26.3573C34.5598 26.5848 35.0641 26.4496 35.2916 26.0557C35.5191 25.6617 35.384 25.1573 34.99 24.9298Z" fill="black"/>
<path d="M35.1553 18.2186H36.8037C37.2586 18.2186 37.6279 17.8493 37.6279 17.3944C37.6279 16.9394 37.2586 16.5702 36.8037 16.5702H35.1553C34.7003 16.5702 34.3311 16.9394 34.3311 17.3944C34.3311 17.8493 34.7003 18.2186 35.1553 18.2186Z" fill="black"/>
<path d="M33.5629 10.6834L34.9904 9.85918C35.3844 9.6317 35.5195 9.12732 35.292 8.73333C35.0646 8.33933 34.5602 8.20419 34.1662 8.43167L32.7387 9.25587C32.3447 9.48335 32.2095 9.98773 32.437 10.3817C32.6645 10.7757 33.1689 10.9109 33.5629 10.6834Z" fill="black"/>
<path d="M28.4223 4.96555L29.2465 3.53803C29.4739 3.14404 29.3388 2.63965 28.9448 2.41217C28.5508 2.18469 28.0464 2.31984 27.8189 2.71383L26.9947 4.14135C26.7673 4.53534 26.9024 5.03972 27.2964 5.2672C27.6904 5.49468 28.1948 5.35954 28.4223 4.96555Z" fill="black"/>
<path d="M13.606 4.14112L12.7818 2.7136C12.5543 2.31961 12.0499 2.18447 11.6559 2.41195C11.2619 2.63943 11.1268 3.14381 11.3543 3.5378L12.1785 4.96532C12.406 5.35931 12.9103 5.49446 13.3043 5.26698C13.6983 5.0395 13.8335 4.53511 13.606 4.14112Z" fill="black"/>
<path d="M7.88461 9.27025L6.4571 8.44605C6.0631 8.21857 5.55872 8.35371 5.33124 8.74771C5.10376 9.1417 5.2389 9.64608 5.6329 9.87356L7.06041 10.6978C7.45441 10.9252 7.95879 10.7901 8.18627 10.3961C8.41375 10.0021 8.27861 9.49773 7.88461 9.27025Z" fill="black"/>
</svg>
