<svg width="24" height="24" viewBox="0 0 24 24" fill="none" xmlns="http://www.w3.org/2000/svg">
<path d="M10.125 1.5C9.691 1.49948 9.27022 1.64955 8.93448 1.92462C8.59874 2.19969 8.36882 2.58273 8.28396 3.00839C8.19909 3.43404 8.26453 3.87596 8.46911 4.25876C8.67368 4.64156 9.00473 4.94153 9.40578 5.1075C9.24828 5.961 8.64078 6.639 7.72953 7.521C7.40855 7.78333 7.11231 8.07455 6.84453 8.391C5.77776 9.64757 5.20955 11.2521 5.24778 12.9V19.5C5.24785 20.0652 5.40757 20.6188 5.70853 21.0972C6.00949 21.5756 6.43946 21.9592 6.94891 22.2039C7.45836 22.4486 8.02657 22.5444 8.58809 22.4803C9.14961 22.4162 9.6816 22.1947 10.1228 21.8415C10.6543 22.2685 11.316 22.5009 11.9978 22.5C12.7073 22.5 13.3598 22.2525 13.8728 21.8415C14.314 22.1947 14.846 22.4162 15.4075 22.4803C15.969 22.5444 16.5372 22.4486 17.0467 22.2039C17.5561 21.9592 17.9861 21.5756 18.287 21.0972C18.588 20.6188 18.7477 20.0652 18.7478 19.5V12.7493C18.7484 11.6831 18.4962 10.632 18.0119 9.68224C17.5275 8.73246 16.8249 7.91107 15.9615 7.2855C15.1898 6.522 14.6805 5.89275 14.5305 5.1315C14.9422 4.97776 15.2868 4.68432 15.5041 4.30241C15.7215 3.9205 15.7978 3.47438 15.7197 3.04194C15.6417 2.6095 15.4142 2.21821 15.077 1.93639C14.7399 1.65457 14.3145 1.50012 13.875 1.5H10.125ZM9.75003 3.375C9.75003 3.27555 9.78954 3.18016 9.85987 3.10984C9.93019 3.03951 10.0256 3 10.125 3H13.875C13.9745 3 14.0699 3.03951 14.1402 3.10984C14.2105 3.18016 14.25 3.27555 14.25 3.375C14.25 3.47446 14.2105 3.56984 14.1402 3.64017C14.0699 3.71049 13.9745 3.75 13.875 3.75H10.125C10.0256 3.75 9.93019 3.71049 9.85987 3.64017C9.78954 3.56984 9.75003 3.47446 9.75003 3.375ZM14.805 8.25H9.12753C9.89628 7.48125 10.6478 6.59325 10.8758 5.4H13.0545C13.284 6.5985 14.0393 7.4835 14.8043 8.25H14.805ZM7.68903 9.75H16.308C16.9437 10.6603 17.2729 11.7495 17.2478 12.8595L17.2485 12.9V16.5H6.74853V12.9C6.74806 12.8768 6.74806 12.8535 6.74853 12.8303V12.75C6.74853 11.634 7.09578 10.6005 7.68903 9.75ZM6.74853 18H17.2485V19.5C17.2485 19.8223 17.1447 20.136 16.9525 20.3946C16.7603 20.6533 16.4899 20.8432 16.1813 20.9362C15.8727 21.0292 15.5424 21.0203 15.2393 20.9109C14.9362 20.8015 14.6763 20.5974 14.4983 20.3288C14.4298 20.2257 14.337 20.1412 14.228 20.0828C14.119 20.0243 13.9972 19.9937 13.8735 19.9937C13.7498 19.9937 13.6281 20.0243 13.5191 20.0828C13.4101 20.1412 13.3172 20.2257 13.2488 20.3288C12.9788 20.7345 12.5198 21 11.9985 21C11.7509 21.0002 11.5071 20.939 11.2889 20.8218C11.0707 20.7047 10.8849 20.5353 10.7483 20.3288C10.6798 20.2257 10.587 20.1412 10.478 20.0828C10.369 20.0243 10.2472 19.9937 10.1235 19.9937C9.99984 19.9937 9.87808 20.0243 9.76907 20.0828C9.66007 20.1412 9.56722 20.2257 9.49878 20.3288C9.32072 20.5974 9.06089 20.8015 8.75775 20.9109C8.45462 21.0203 8.12432 21.0292 7.81575 20.9362C7.50719 20.8432 7.23677 20.6533 7.04455 20.3946C6.85234 20.136 6.74854 19.8223 6.74853 19.5V18Z" fill="#434449"/>
</svg>
