<svg width="24" height="24" viewBox="0 0 24 24" fill="none" xmlns="http://www.w3.org/2000/svg">
<g clip-path="url(#clip0_3080_86921)">
<path d="M20.6695 22.2171H6.88668C6.65936 22.2171 6.44134 22.1268 6.28059 21.966C6.11985 21.8053 6.02954 21.5873 6.02954 21.3599C6.02954 21.1326 6.11985 20.9146 6.28059 20.7538C6.44134 20.5931 6.65936 20.5028 6.88668 20.5028H20.6695C21.0186 20.5325 21.3654 20.4243 21.6355 20.2012C21.9057 19.9781 22.0776 19.658 22.1143 19.3096V9.37364C22.0774 9.02538 21.9054 8.70546 21.6353 8.48254C21.3652 8.25961 21.0185 8.15142 20.6695 8.18118C20.4422 8.18118 20.2242 8.09088 20.0634 7.93013C19.9027 7.76939 19.8124 7.55137 19.8124 7.32404C19.8124 7.09671 19.9027 6.87869 20.0634 6.71795C20.2242 6.5572 20.4422 6.4669 20.6695 6.4669C21.4733 6.43566 22.2568 6.72387 22.8488 7.26853C23.4407 7.8132 23.793 8.57003 23.8286 9.37364V19.309C23.7932 20.1127 23.441 20.8698 22.849 21.4147C22.2571 21.9597 21.4735 22.2481 20.6695 22.2171Z" fill="black"/>
<path d="M9.96348 8.1812H6.88668C6.65936 8.1812 6.44134 8.0909 6.28059 7.93015C6.11985 7.76941 6.02954 7.55139 6.02954 7.32406C6.02954 7.09673 6.11985 6.87872 6.28059 6.71797C6.44134 6.55722 6.65936 6.46692 6.88668 6.46692H9.96348C10.1908 6.46692 10.4088 6.55722 10.5696 6.71797C10.7303 6.87872 10.8206 7.09673 10.8206 7.32406C10.8206 7.55139 10.7303 7.76941 10.5696 7.93015C10.4088 8.0909 10.1908 8.1812 9.96348 8.1812Z" fill="black"/>
<path d="M4.86853 23.0776H3.04522C2.28353 23.076 1.55351 22.7727 1.01491 22.2341C0.476318 21.6955 0.173017 20.9655 0.171387 20.2038V7.6312C0.173198 6.86963 0.476579 6.13979 1.01515 5.60134C1.55373 5.06289 2.28365 4.75969 3.04522 4.75806H4.86853C5.6301 4.75969 6.36002 5.06289 6.89859 5.60134C7.43717 6.13979 7.74055 6.86963 7.74236 7.6312V20.2038C7.74073 20.9655 7.43743 21.6955 6.89883 22.2341C6.36024 22.7727 5.63021 23.076 4.86853 23.0776ZM3.04522 6.47234C2.73786 6.47252 2.44313 6.59465 2.22574 6.81192C2.00834 7.02919 1.88604 7.32384 1.88567 7.6312V20.2038C1.88585 20.5112 2.00808 20.8061 2.2255 21.0235C2.44291 21.2409 2.73774 21.3631 3.04522 21.3633H4.86853C5.17595 21.3629 5.47067 21.2407 5.68805 21.0233C5.90543 20.8059 6.02771 20.5112 6.02807 20.2038V7.6312C6.02753 7.3239 5.90517 7.02935 5.68781 6.81212C5.47045 6.59489 5.17583 6.4727 4.86853 6.47234H3.04522Z" fill="black"/>
<path d="M19.6505 11.391H10.2075C9.98016 11.391 9.76214 11.3007 9.60139 11.14C9.44065 10.9792 9.35034 10.7612 9.35034 10.5339V1.7828C9.35034 1.55547 9.44065 1.33746 9.60139 1.17671C9.76214 1.01597 9.98016 0.925659 10.2075 0.925659H19.6505C19.8778 0.925659 20.0958 1.01597 20.2565 1.17671C20.4173 1.33746 20.5076 1.55547 20.5076 1.7828V10.5339C20.5076 10.7612 20.4173 10.9792 20.2565 11.14C20.0958 11.3007 19.8778 11.391 19.6505 11.391ZM11.0646 9.67675H18.7933V2.63652H11.0646V9.67675Z" fill="black"/>
<path d="M11.3938 15.1988C11.6152 15.1899 11.8246 15.0957 11.9781 14.936C12.1316 14.7762 12.2174 14.5632 12.2174 14.3416C12.2174 14.1201 12.1316 13.9071 11.9781 13.7473C11.8246 13.5875 11.6152 13.4934 11.3938 13.4845C11.1725 13.4934 10.9631 13.5875 10.8096 13.7473C10.656 13.9071 10.5703 14.1201 10.5703 14.3416C10.5703 14.5632 10.656 14.7762 10.8096 14.936C10.9631 15.0957 11.1725 15.1899 11.3938 15.1988Z" fill="black"/>
<path d="M14.9292 15.1988C15.1506 15.1899 15.36 15.0957 15.5135 14.936C15.667 14.7762 15.7528 14.5632 15.7528 14.3416C15.7528 14.1201 15.667 13.9071 15.5135 13.7473C15.36 13.5875 15.1506 13.4934 14.9292 13.4845C14.7079 13.4934 14.4985 13.5875 14.345 13.7473C14.1914 13.9071 14.1057 14.1201 14.1057 14.3416C14.1057 14.5632 14.1914 14.7762 14.345 14.936C14.4985 15.0957 14.7079 15.1899 14.9292 15.1988Z" fill="black"/>
<path d="M18.4649 15.1988C18.6863 15.1899 18.8957 15.0957 19.0492 14.936C19.2027 14.7762 19.2884 14.5632 19.2884 14.3416C19.2884 14.1201 19.2027 13.9071 19.0492 13.7473C18.8957 13.5875 18.6863 13.4934 18.4649 13.4845C18.2435 13.4934 18.0341 13.5875 17.8806 13.7473C17.7271 13.9071 17.6414 14.1201 17.6414 14.3416C17.6414 14.5632 17.7271 14.7762 17.8806 14.936C18.0341 15.0957 18.2435 15.1899 18.4649 15.1988Z" fill="black"/>
<path d="M11.3938 18.0685C11.6152 18.0597 11.8246 17.9655 11.9781 17.8057C12.1316 17.6459 12.2174 17.433 12.2174 17.2114C12.2174 16.9898 12.1316 16.7768 11.9781 16.6171C11.8246 16.4573 11.6152 16.3631 11.3938 16.3542C11.1725 16.3631 10.9631 16.4573 10.8096 16.6171C10.656 16.7768 10.5703 16.9898 10.5703 17.2114C10.5703 17.433 10.656 17.6459 10.8096 17.8057C10.9631 17.9655 11.1725 18.0597 11.3938 18.0685Z" fill="black"/>
<path d="M14.9292 18.0685C15.1506 18.0597 15.36 17.9655 15.5135 17.8057C15.667 17.6459 15.7528 17.433 15.7528 17.2114C15.7528 16.9898 15.667 16.7768 15.5135 16.6171C15.36 16.4573 15.1506 16.3631 14.9292 16.3542C14.7079 16.3631 14.4985 16.4573 14.345 16.6171C14.1914 16.7768 14.1057 16.9898 14.1057 17.2114C14.1057 17.433 14.1914 17.6459 14.345 17.8057C14.4985 17.9655 14.7079 18.0597 14.9292 18.0685Z" fill="black"/>
<path d="M18.4649 18.0685C18.6863 18.0597 18.8957 17.9655 19.0492 17.8057C19.2027 17.6459 19.2884 17.433 19.2884 17.2114C19.2884 16.9898 19.2027 16.7768 19.0492 16.6171C18.8957 16.4573 18.6863 16.3631 18.4649 16.3542C18.2435 16.3631 18.0341 16.4573 17.8806 16.6171C17.7271 16.7768 17.6414 16.9898 17.6414 17.2114C17.6414 17.433 17.7271 17.6459 17.8806 17.8057C18.0341 17.9655 18.2435 18.0597 18.4649 18.0685Z" fill="black"/>
</g>
<defs>
<clipPath id="clip0_3080_86921">
<rect width="24" height="24" fill="white"/>
</clipPath>
</defs>
</svg>
