<svg width="40" height="40" viewBox="0 0 40 40" fill="none" xmlns="http://www.w3.org/2000/svg">
<path d="M33.6666 33.9333H34.9333V39H33.6666V33.9333Z" fill="black"/>
<path d="M2 32.0334V39H3.26667V32.0334C3.26667 30.8598 4.58147 30.1334 5.8 30.1334H12.1333C12.2138 30.1334 12.2935 30.1182 12.3683 30.0884L15.535 28.8217C15.6331 28.7826 15.7201 28.72 15.7883 28.6393L18.6332 25.2244L20.0392 25.9268L16.7947 30.2518L12.5171 32.0847C12.4032 32.1335 12.3062 32.2147 12.2379 32.3181C12.1697 32.4216 12.1333 32.5428 12.1333 32.6667V39H13.4V33.0841L17.4495 31.3487C17.5516 31.3053 17.6403 31.2356 17.7067 31.1467L19.7333 28.4449L21.76 31.1467C21.8266 31.2352 21.9153 31.3046 22.0171 31.3481L26.0667 33.0841V39H27.3333V32.6667C27.3333 32.5428 27.2969 32.4216 27.2287 32.3181C27.1605 32.2147 27.0634 32.1335 26.9495 32.0847L22.672 30.2518L20.5244 27.3898L21.5067 26.08C21.5136 26.0699 21.5143 26.0579 21.5212 26.0477L23.6796 28.6393C23.7479 28.72 23.8349 28.7826 23.933 28.8217L27.0996 30.0884C27.174 30.118 27.2533 30.1333 27.3333 30.1334H33.6667C34.8852 30.1334 36.2 30.8598 36.2 32.0334V39H37.4667V32.0334C37.4667 30.0776 35.4945 28.8667 33.6667 28.8667H33.0137C33.5501 28.4708 33.948 27.9157 34.1504 27.2805C34.3529 26.6452 34.3497 25.9623 34.1413 25.329C33.933 24.6957 33.53 24.1443 32.9899 23.7534C32.4498 23.3625 31.8 23.1521 31.1333 23.1521C30.4666 23.1521 29.8169 23.3625 29.2768 23.7534C28.7367 24.1443 28.3337 24.6957 28.1253 25.329C27.9169 25.9623 27.9137 26.6452 28.1162 27.2805C28.3187 27.9157 28.7165 28.4708 29.253 28.8667H27.4549L24.5505 27.7045L21.487 24.0274C21.3956 23.9177 21.2698 23.8421 21.13 23.8129C20.9902 23.7837 20.8446 23.8026 20.7169 23.8665L19.7333 24.3586L18.7498 23.8634C18.6221 23.7994 18.4765 23.7805 18.3367 23.8097C18.1969 23.8389 18.0711 23.9145 17.9796 24.0242L14.9162 27.7014L12.0117 28.8667H10.2137C10.7501 28.4708 11.148 27.9157 11.3504 27.2805C11.5529 26.6452 11.5497 25.9623 11.3413 25.329C11.133 24.6957 10.73 24.1443 10.1899 23.7534C9.64976 23.3625 9.00005 23.1521 8.33333 23.1521C7.66662 23.1521 7.01691 23.3625 6.47679 23.7534C5.93668 24.1443 5.53371 24.6957 5.32532 25.329C5.11693 25.9623 5.11375 26.6452 5.31623 27.2805C5.51871 27.9157 5.91652 28.4708 6.45297 28.8667H5.8C3.9722 28.8667 2 30.0776 2 32.0334ZM31.1333 24.4334C31.5091 24.4334 31.8765 24.5448 32.1889 24.7536C32.5014 24.9624 32.7449 25.2591 32.8887 25.6063C33.0325 25.9535 33.0701 26.3355 32.9968 26.704C32.9235 27.0726 32.7426 27.4112 32.4768 27.6769C32.2111 27.9426 31.8726 28.1236 31.504 28.1969C31.1354 28.2702 30.7534 28.2325 30.4062 28.0887C30.0591 27.9449 29.7623 27.7014 29.5535 27.389C29.3448 27.0765 29.2333 26.7092 29.2333 26.3334C29.2333 25.8295 29.4335 25.3462 29.7898 24.9899C30.1461 24.6336 30.6294 24.4334 31.1333 24.4334ZM8.33333 24.4334C8.70912 24.4334 9.07646 24.5448 9.38892 24.7536C9.70137 24.9624 9.9449 25.2591 10.0887 25.6063C10.2325 25.9535 10.2701 26.3355 10.1968 26.704C10.1235 27.0726 9.94256 27.4112 9.67684 27.6769C9.41112 27.9426 9.07257 28.1236 8.704 28.1969C8.33544 28.2702 7.95341 28.2325 7.60623 28.0887C7.25905 27.9449 6.96232 27.7014 6.75354 27.389C6.54477 27.0765 6.43333 26.7092 6.43333 26.3334C6.43333 25.8295 6.63351 25.3462 6.98983 24.9899C7.34615 24.6336 7.82942 24.4334 8.33333 24.4334Z" fill="black"/>
<path d="M4.53491 33.9333H5.80158V39H4.53491V33.9333Z" fill="black"/>
<path d="M19.7318 22.5333C21.8612 22.5333 23.9428 21.9019 25.7134 20.7188C27.484 19.5358 28.8639 17.8542 29.6789 15.8869C30.4938 13.9195 30.707 11.7547 30.2915 9.6662C29.8761 7.57767 28.8507 5.65923 27.3449 4.15349C25.8392 2.64774 23.9208 1.62232 21.8322 1.20688C19.7437 0.791449 17.5789 1.00467 15.6115 1.81957C13.6442 2.63447 11.9627 4.01446 10.7796 5.78503C9.59654 7.5556 8.96509 9.63722 8.96509 11.7667C8.96827 14.6212 10.1036 17.3579 12.1221 19.3763C14.1405 21.3948 16.8772 22.5301 19.7318 22.5333ZM19.7318 21.2667C18.3208 21.2666 16.9277 20.9517 15.6539 20.3449C14.3801 19.7382 13.2577 18.8548 12.3686 17.7593L15.9109 14.5413L18.6507 17.2811C18.7584 17.3889 18.9015 17.4542 19.0535 17.465C19.2056 17.4758 19.3565 17.4314 19.4784 17.34L21.6755 15.6933L26.4501 18.48C25.5692 19.3643 24.5221 20.0658 23.3691 20.544C22.2162 21.0223 20.98 21.2679 19.7318 21.2667ZM29.1722 12.8053L26.5844 10.7375L24.9498 6.9242L26.9049 5.56C27.7661 6.54409 28.4126 7.69702 28.803 8.94512C29.1934 10.1932 29.3192 11.509 29.1722 12.8085V12.8053ZM26.0018 4.64547L23.8053 6.1813C23.6861 6.26471 23.5993 6.38661 23.5594 6.52651C23.5195 6.66642 23.5289 6.8158 23.5862 6.94954L25.4862 11.3829C25.5272 11.4788 25.5914 11.563 25.673 11.628L28.903 14.2101C28.5847 15.401 28.037 16.5185 27.2906 17.4996L21.9484 14.3861C21.8411 14.3239 21.7178 14.2946 21.594 14.3018C21.4701 14.309 21.3511 14.3524 21.2518 14.4267L19.158 15.9973L16.3795 13.2189C16.2644 13.1038 16.1094 13.0374 15.9467 13.0335C15.784 13.0296 15.626 13.0885 15.5055 13.198L11.6365 16.7124C10.8077 15.3624 10.3328 13.8252 10.2558 12.2429L14.8925 10.4582C14.9921 10.4198 15.0804 10.3568 15.1492 10.2751C15.2179 10.1933 15.2649 10.0956 15.2858 9.9908L15.8634 7.10724L20.0434 4.7164C20.1166 4.67451 20.1807 4.6184 20.232 4.55138C20.2832 4.48435 20.3205 4.40777 20.3418 4.32611C20.363 4.24446 20.3677 4.15938 20.3556 4.07588C20.3435 3.99238 20.3149 3.91214 20.2714 3.83987L19.3397 2.2863C19.4708 2.28124 19.5994 2.26667 19.7318 2.26667C22.0423 2.26631 24.2729 3.11259 26.0018 4.64547ZM17.9584 2.43957L18.8603 3.93804L14.9818 6.15027C14.9032 6.1952 14.8352 6.25643 14.7824 6.32985C14.7295 6.40326 14.693 6.48715 14.6752 6.57587L14.1097 9.40117L10.2767 10.88C10.4718 8.83231 11.3253 6.903 12.7093 5.38128C14.0933 3.85957 15.9333 2.82742 17.9534 2.43957H17.9584Z" fill="black"/>
</svg>
