<svg width="20" height="20" viewBox="0 0 20 20" fill="none" xmlns="http://www.w3.org/2000/svg">
<path d="M10 13.1248C8.275 13.1248 6.875 11.7248 6.875 9.99976C6.875 8.27476 8.275 6.87476 10 6.87476C11.725 6.87476 13.125 8.27476 13.125 9.99976C13.125 11.7248 11.725 13.1248 10 13.1248ZM10 8.12476C8.96667 8.12476 8.125 8.96642 8.125 9.99976C8.125 11.0331 8.96667 11.8748 10 11.8748C11.0333 11.8748 11.875 11.0331 11.875 9.99976C11.875 8.96642 11.0333 8.12476 10 8.12476Z" fill="#7E8189"/>
<path d="M12.6753 18.4915C12.5003 18.4915 12.3253 18.4665 12.1503 18.4248C11.6337 18.2832 11.2003 17.9582 10.9253 17.4998L10.8253 17.3332C10.3337 16.4832 9.65866 16.4832 9.16699 17.3332L9.07533 17.4915C8.80033 17.9582 8.36699 18.2915 7.85033 18.4248C7.32533 18.5665 6.78366 18.4915 6.32533 18.2165L4.89199 17.3915C4.38366 17.0998 4.01699 16.6248 3.85866 16.0498C3.70866 15.4748 3.78366 14.8832 4.07533 14.3748C4.31699 13.9498 4.38366 13.5665 4.24199 13.3248C4.10033 13.0832 3.74199 12.9415 3.25033 12.9415C2.03366 12.9415 1.04199 11.9498 1.04199 10.7332V9.2665C1.04199 8.04983 2.03366 7.05817 3.25033 7.05817C3.74199 7.05817 4.10033 6.9165 4.24199 6.67483C4.38366 6.43317 4.32533 6.04983 4.07533 5.62483C3.78366 5.1165 3.70866 4.5165 3.85866 3.94983C4.00866 3.37483 4.37533 2.89983 4.89199 2.60817L6.33366 1.78317C7.27533 1.22483 8.51699 1.54983 9.08366 2.50817L9.18366 2.67483C9.67533 3.52483 10.3503 3.52483 10.842 2.67483L10.9337 2.5165C11.5003 1.54983 12.742 1.22483 13.692 1.7915L15.1253 2.6165C15.6337 2.90817 16.0003 3.38317 16.1587 3.95817C16.3087 4.53317 16.2337 5.12483 15.942 5.63316C15.7003 6.05817 15.6337 6.4415 15.7753 6.68317C15.917 6.92483 16.2753 7.0665 16.767 7.0665C17.9837 7.0665 18.9753 8.05816 18.9753 9.27483V10.7415C18.9753 11.9582 17.9837 12.9498 16.767 12.9498C16.2753 12.9498 15.917 13.0915 15.7753 13.3332C15.6337 13.5748 15.692 13.9582 15.942 14.3832C16.2337 14.8915 16.317 15.4915 16.1587 16.0582C16.0087 16.6332 15.642 17.1082 15.1253 17.3998L13.6837 18.2248C13.367 18.3998 13.0253 18.4915 12.6753 18.4915ZM10.0003 15.4082C10.742 15.4082 11.4337 15.8748 11.9087 16.6998L12.0003 16.8582C12.1003 17.0332 12.267 17.1582 12.467 17.2082C12.667 17.2582 12.867 17.2332 13.0337 17.1332L14.4753 16.2998C14.692 16.1748 14.8587 15.9665 14.9253 15.7165C14.992 15.4665 14.9587 15.2082 14.8337 14.9915C14.3587 14.1748 14.3003 13.3332 14.667 12.6915C15.0337 12.0498 15.792 11.6832 16.742 11.6832C17.2753 11.6832 17.7003 11.2582 17.7003 10.7248V9.25817C17.7003 8.73317 17.2753 8.29983 16.742 8.29983C15.792 8.29983 15.0337 7.93316 14.667 7.2915C14.3003 6.64983 14.3587 5.80817 14.8337 4.9915C14.9587 4.77483 14.992 4.5165 14.9253 4.2665C14.8587 4.0165 14.7003 3.8165 14.4837 3.68316L13.042 2.85817C12.6837 2.6415 12.2087 2.7665 11.992 3.13317L11.9003 3.2915C11.4253 4.1165 10.7337 4.58317 9.99199 4.58317C9.25033 4.58317 8.55866 4.1165 8.08366 3.2915L7.99199 3.12483C7.78366 2.77483 7.31699 2.64983 6.95866 2.85817L5.51699 3.6915C5.30033 3.8165 5.13366 4.02483 5.06699 4.27483C5.00033 4.52483 5.03366 4.78317 5.15866 4.99983C5.63366 5.8165 5.69199 6.65816 5.32533 7.29983C4.95866 7.9415 4.20033 8.30817 3.25033 8.30817C2.71699 8.30817 2.29199 8.73316 2.29199 9.2665V10.7332C2.29199 11.2582 2.71699 11.6915 3.25033 11.6915C4.20033 11.6915 4.95866 12.0582 5.32533 12.6998C5.69199 13.3415 5.63366 14.1832 5.15866 14.9998C5.03366 15.2165 5.00033 15.4748 5.06699 15.7248C5.13366 15.9748 5.29199 16.1748 5.50866 16.3082L6.95033 17.1332C7.12533 17.2415 7.33366 17.2665 7.52533 17.2165C7.72533 17.1665 7.89199 17.0332 8.00033 16.8582L8.09199 16.6998C8.56699 15.8832 9.25866 15.4082 10.0003 15.4082Z" fill="#7E8189"/>
</svg>
