<svg width="20" height="20" viewBox="0 0 20 20" fill="none" xmlns="http://www.w3.org/2000/svg">
<path d="M18.3337 18.9584H1.66699C1.32533 18.9584 1.04199 18.675 1.04199 18.3334C1.04199 17.9917 1.32533 17.7084 1.66699 17.7084H18.3337C18.6753 17.7084 18.9587 17.9917 18.9587 18.3334C18.9587 18.675 18.6753 18.9584 18.3337 18.9584Z" fill="#7E8189"/>
<path d="M11.875 18.9584H8.125C7.78333 18.9584 7.5 18.6751 7.5 18.3334V3.33341C7.5 1.90008 8.29167 1.04175 9.625 1.04175H10.375C11.7083 1.04175 12.5 1.90008 12.5 3.33341V18.3334C12.5 18.6751 12.2167 18.9584 11.875 18.9584ZM8.75 17.7084H11.25V3.33341C11.25 2.37508 10.8 2.29175 10.375 2.29175H9.625C9.2 2.29175 8.75 2.37508 8.75 3.33341V17.7084Z" fill="#7E8189"/>
<path d="M5.83333 18.9584H2.5C2.15833 18.9584 1.875 18.6751 1.875 18.3334V8.33341C1.875 6.90008 2.60833 6.04175 3.83333 6.04175H4.5C5.725 6.04175 6.45833 6.90008 6.45833 8.33341V18.3334C6.45833 18.6751 6.175 18.9584 5.83333 18.9584ZM3.125 17.7084H5.20833V8.33341C5.20833 7.29175 4.75 7.29175 4.5 7.29175H3.83333C3.58333 7.29175 3.125 7.29175 3.125 8.33341V17.7084Z" fill="#7E8189"/>
<path d="M17.5003 18.9584H14.167C13.8253 18.9584 13.542 18.675 13.542 18.3334V12.5C13.542 11.0667 14.2753 10.2084 15.5003 10.2084H16.167C17.392 10.2084 18.1253 11.0667 18.1253 12.5V18.3334C18.1253 18.675 17.842 18.9584 17.5003 18.9584ZM14.792 17.7084H16.8753V12.5C16.8753 11.4584 16.417 11.4584 16.167 11.4584H15.5003C15.2503 11.4584 14.792 11.4584 14.792 12.5V17.7084Z" fill="#7E8189"/>
</svg>
