<svg width="44" height="44" viewBox="0 0 44 44" fill="none" xmlns="http://www.w3.org/2000/svg">
<g clip-path="url(#clip0_4067_128871)">
<mask id="path-1-outside-1_4067_128871" maskUnits="userSpaceOnUse" x="0" y="0" width="44" height="44" fill="black">
<rect fill="white" width="44" height="44"/>
<path d="M22 16.3973C22.174 16.3973 22.341 16.4664 22.464 16.5895C22.5871 16.7125 22.6562 16.8795 22.6562 17.0535V21.3919C22.6562 21.5659 22.5871 21.7329 22.464 21.8559C22.341 21.979 22.174 22.0481 22 22.0481C21.826 22.0481 21.659 21.979 21.536 21.8559C21.4129 21.7329 21.3438 21.5659 21.3438 21.3919V17.0535C21.3438 16.8795 21.4129 16.7125 21.536 16.5895C21.659 16.4664 21.826 16.3973 22 16.3973ZM15.9886 10.9319V4.74799C15.9886 4.63281 16.0189 4.51967 16.0765 4.41992C16.1341 4.32018 16.217 4.23735 16.3167 4.17976L21.6719 1.08792C21.7716 1.03032 21.8848 1 22 1C22.1152 1 22.2284 1.03032 22.3281 1.08792L27.6833 4.17976C27.783 4.23735 27.8659 4.32018 27.9235 4.41992C27.9811 4.51967 28.0114 4.63281 28.0114 4.74799V10.9316C28.0114 11.0468 27.9811 11.1599 27.9235 11.2597C27.8659 11.3595 27.7831 11.4423 27.6833 11.4999L22.3281 14.5917C22.2284 14.6493 22.1152 14.6797 22 14.6797C21.8848 14.6797 21.7716 14.6493 21.6719 14.5917L16.3167 11.5C16.2169 11.4424 16.1341 11.3595 16.0765 11.2598C16.0189 11.16 15.9886 11.0468 15.9886 10.9316V10.9319ZM17.3011 10.553L21.3438 12.8868V8.21874L17.3011 5.88462V10.553ZM26.6989 10.553V5.88462L22.6562 8.21874V12.8869L26.6989 10.553ZM17.9573 4.74808L22 7.08211L26.0427 4.74808L22 2.41396L17.9573 4.74808ZM36.9886 25.7071C36.8145 25.7071 36.6476 25.7762 36.5245 25.8993C36.4015 26.0224 36.3323 26.1893 36.3323 26.3633V28.5033L33.1038 31.7318C33.0423 31.7926 32.9934 31.8649 32.9599 31.9447C32.9264 32.0245 32.909 32.1101 32.9088 32.1966C32.9085 32.2831 32.9254 32.3688 32.9583 32.4488C32.9913 32.5288 33.0398 32.6015 33.101 32.6627C33.1621 32.7238 33.2348 32.7723 33.3148 32.8053C33.3948 32.8383 33.4805 32.8551 33.567 32.8549C33.6535 32.8546 33.7391 32.8373 33.8189 32.8038C33.8987 32.7703 33.971 32.7214 34.0319 32.6599L37.4526 29.2392C37.5135 29.1782 37.5618 29.1059 37.5948 29.0263C37.6278 28.9466 37.6448 28.8613 37.6448 28.7751V26.3634C37.6448 26.1894 37.5756 26.0225 37.4526 25.8994C37.3295 25.7763 37.1626 25.7072 36.9886 25.7071V25.7071ZM43 13.8067V19.9902C43 20.1054 42.9697 20.2186 42.9121 20.3183C42.8545 20.4181 42.7716 20.5009 42.6719 20.5585L37.3167 23.6503C37.2169 23.7079 37.1038 23.7382 36.9886 23.7382C36.8734 23.7382 36.7602 23.7079 36.6605 23.6503L31.3054 20.5585C31.2056 20.5009 31.1228 20.4181 31.0652 20.3183C31.0076 20.2186 30.9773 20.1054 30.9773 19.9902V13.8067C30.9773 13.6915 31.0076 13.5784 31.0652 13.4786C31.1228 13.3788 31.2056 13.296 31.3054 13.2384L36.6605 10.1466C36.7602 10.089 36.8734 10.0587 36.9886 10.0587C37.1038 10.0587 37.2169 10.089 37.3167 10.1466L42.6719 13.2384C42.7716 13.296 42.8545 13.3788 42.9121 13.4786C42.9697 13.5784 43 13.6915 43 13.8067ZM32.9459 13.8067L36.9886 16.1407L41.0312 13.8068L36.9886 11.4727L32.9459 13.8067ZM32.2897 19.6113L36.3323 21.9454V17.2774L32.2897 14.9433V19.6113ZM41.6874 19.6113V14.9433L37.6448 17.2774V21.9454L41.6874 19.6113ZM7.66766 28.5033V26.3634C7.66766 26.1894 7.59852 26.0224 7.47545 25.8994C7.35238 25.7763 7.18546 25.7071 7.01141 25.7071C6.83737 25.7071 6.67045 25.7763 6.54738 25.8994C6.4243 26.0224 6.35516 26.1894 6.35516 26.3634V28.7751C6.35516 28.8613 6.37213 28.9466 6.40511 29.0263C6.43809 29.1059 6.48643 29.1782 6.54736 29.2392L9.96807 32.6599C10.0914 32.7817 10.2579 32.8498 10.4313 32.8493C10.6046 32.8487 10.7707 32.7796 10.8933 32.657C11.0159 32.5344 11.085 32.3683 11.0855 32.195C11.086 32.0216 11.0179 31.8551 10.8961 31.7318L7.66766 28.5033ZM6.68329 23.6504L1.32812 20.5586C1.22835 20.501 1.1455 20.4182 1.0879 20.3184C1.03031 20.2186 0.999989 20.1054 1 19.9902V13.8067C1 13.6915 1.03033 13.5784 1.08792 13.4786C1.14552 13.3788 1.22836 13.296 1.32812 13.2384L6.68329 10.1465C6.78305 10.0889 6.89622 10.0586 7.01141 10.0586C7.12661 10.0586 7.23978 10.0889 7.33954 10.1465L12.6946 13.2382C12.7944 13.2958 12.8772 13.3787 12.9348 13.4784C12.9924 13.5782 13.0227 13.6914 13.0227 13.8065V19.9902C13.0227 20.1054 12.9924 20.2186 12.9348 20.3183C12.8772 20.4181 12.7944 20.5009 12.6946 20.5585L7.33954 23.6503C7.23978 23.7079 7.12661 23.7382 7.01141 23.7382C6.89622 23.7382 6.78305 23.7079 6.68329 23.6503V23.6504ZM11.7102 19.6114V14.9433L7.66766 17.2774V21.9454L11.7102 19.6114ZM2.96875 13.8068L7.01141 16.1407L11.0541 13.8068L7.01141 11.4727L2.96875 13.8068ZM2.3125 19.6114L6.35516 21.9454V17.2774L2.3125 14.9433V19.6114ZM31.4582 32.662V34.4212C31.4582 34.5539 31.418 34.6834 31.343 34.7927C31.2679 34.902 31.1615 34.9861 31.0377 35.0337L29.8923 35.4746C29.6966 36.2789 29.3777 37.0482 28.947 37.7551L28.9486 37.7587L29.4456 38.8777C29.4994 38.9989 29.5152 39.1335 29.491 39.2638C29.4667 39.3941 29.4036 39.514 29.3099 39.6078L28.0659 40.8518C27.9721 40.9455 27.8522 41.0087 27.7219 41.0329C27.5916 41.0571 27.457 41.0413 27.3358 40.9875L26.2136 40.4892C25.5067 40.92 24.7375 41.2389 23.9331 41.4346L23.9322 41.4368L23.4924 42.5796C23.4447 42.7034 23.3606 42.8098 23.2512 42.8849C23.1419 42.9599 23.0123 43.0001 22.8796 43H21.1204C20.9878 43 20.8583 42.9598 20.7489 42.8848C20.6396 42.8097 20.5556 42.7033 20.5079 42.5795L20.067 41.4341C19.2627 41.2384 18.4935 40.9196 17.7865 40.4889L17.7829 40.4904L16.6639 40.9874C16.5428 41.0411 16.4082 41.0569 16.2779 41.0327C16.1476 41.0085 16.0277 40.9454 15.9339 40.8518L14.6899 39.6078C14.5962 39.514 14.533 39.3941 14.5088 39.2638C14.4846 39.1335 14.5004 38.9989 14.5541 38.8777L15.0525 37.7555C14.6217 37.0486 14.3028 36.2794 14.1071 35.475L14.1047 35.4741L12.9621 35.0344C12.8383 34.9867 12.7319 34.9027 12.6568 34.7934C12.5817 34.684 12.5416 34.5545 12.5416 34.4219V32.6621C12.5415 32.5295 12.5817 32.4 12.6568 32.2906C12.7319 32.1813 12.8383 32.0973 12.962 32.0496L14.1073 31.6088C14.3029 30.8044 14.6218 30.0352 15.0527 29.3283L14.5541 28.2059C14.5003 28.0847 14.4845 27.9501 14.5088 27.8198C14.533 27.6895 14.5961 27.5696 14.6898 27.4758L15.9338 26.2317C16.0275 26.138 16.1475 26.0749 16.2778 26.0507C16.4081 26.0265 16.5427 26.0423 16.6639 26.0961L17.7865 26.5946C18.4934 26.1638 19.2627 25.845 20.067 25.6493L20.068 25.6467L20.5079 24.5039C20.5556 24.3802 20.6396 24.2737 20.7489 24.1987C20.8582 24.1236 20.9877 24.0834 21.1203 24.0834H22.8796C23.0122 24.0834 23.1417 24.1236 23.251 24.1987C23.3603 24.2737 23.4443 24.3802 23.492 24.5039L23.9329 25.6493C24.7372 25.845 25.5065 26.1639 26.2134 26.5946L27.336 26.0961C27.4571 26.0423 27.5917 26.0265 27.722 26.0507C27.8524 26.0749 27.9723 26.138 28.066 26.2317L29.3101 27.4757C29.4038 27.5694 29.467 27.6893 29.4912 27.8197C29.5154 27.95 29.4996 28.0846 29.4459 28.2057L28.9475 29.3279C29.3783 30.0348 29.6972 30.8041 29.8929 31.6084L29.8953 31.6092L31.0379 32.0491C31.1617 32.0968 31.2681 32.1809 31.3432 32.2903C31.4182 32.3997 31.4583 32.5293 31.4582 32.662ZM30.1457 33.1126L29.0919 32.707C28.9884 32.6671 28.8966 32.6016 28.8252 32.5166C28.7538 32.4317 28.7051 32.33 28.6837 32.2211C28.5108 31.3372 28.1625 30.497 27.6594 29.7501C27.5976 29.6579 27.5601 29.5516 27.5505 29.441C27.5409 29.3305 27.5595 29.2193 27.6045 29.1178L28.0632 28.085L27.4561 27.478L26.4226 27.9368C26.3211 27.9819 26.2099 28.0005 26.0994 27.9908C25.9888 27.9812 25.8825 27.9437 25.7904 27.8819C25.0438 27.3792 24.204 27.031 23.3207 26.858C23.2118 26.8367 23.1101 26.788 23.0251 26.7166C22.9401 26.6452 22.8746 26.5534 22.8347 26.4499L22.429 25.3961H21.5709L21.1653 26.4501C21.1254 26.5537 21.0599 26.6455 20.9749 26.7169C20.8899 26.7883 20.7881 26.837 20.6792 26.8584C19.7956 27.0314 18.9556 27.3796 18.2088 27.8825C18.1166 27.9444 18.0103 27.9819 17.8998 27.9915C17.7892 28.0011 17.678 27.9825 17.5766 27.9375L16.543 27.4786L15.936 28.0856L16.3949 29.1188C16.4399 29.2203 16.4585 29.3314 16.4489 29.442C16.4393 29.5525 16.4018 29.6588 16.3399 29.751C15.8371 30.4977 15.4891 31.3376 15.3163 32.2211C15.2949 32.33 15.2462 32.4316 15.1749 32.5166C15.1035 32.6016 15.0118 32.6671 14.9082 32.707L13.8541 33.1129V33.9709L14.9079 34.3765C15.0115 34.4163 15.1033 34.4818 15.1747 34.5668C15.246 34.6518 15.2947 34.7535 15.3161 34.8624C15.489 35.7462 15.8373 36.5864 16.3403 37.3334C16.4022 37.4255 16.4397 37.5318 16.4493 37.6424C16.459 37.753 16.4404 37.8642 16.3953 37.9657L15.9366 38.9984L16.5436 39.6055L17.5772 39.1467C17.6786 39.1017 17.7896 39.0832 17.9001 39.0928C18.0105 39.1024 18.1167 39.1398 18.2088 39.2015C18.9557 39.7043 19.7957 40.0524 20.6793 40.2252C20.7882 40.2466 20.8899 40.2952 20.9749 40.3666C21.0599 40.438 21.1255 40.5298 21.1653 40.6334L21.571 41.6875H22.429L22.8347 40.6337C22.8746 40.5302 22.9401 40.4384 23.025 40.367C23.11 40.2957 23.2117 40.247 23.3206 40.2256C24.2045 40.0526 25.0447 39.7043 25.7916 39.2012C25.8838 39.1393 25.9901 39.1018 26.1007 39.0922C26.2112 39.0826 26.3224 39.1012 26.4239 39.1463L27.4566 39.605L28.0637 38.9979L27.6047 37.9643C27.5597 37.8629 27.5411 37.7518 27.5507 37.6412C27.5603 37.5307 27.5977 37.4243 27.6596 37.3322C28.1624 36.5856 28.5106 35.7458 28.6836 34.8625C28.705 34.7536 28.7536 34.6518 28.825 34.5668C28.8964 34.4818 28.9882 34.4163 29.0918 34.3765L30.1459 33.9708L30.1457 33.1126ZM26.7928 33.5416C26.7928 34.4896 26.5117 35.4163 25.9851 36.2045C25.4584 36.9927 24.7098 37.607 23.834 37.9698C22.9582 38.3326 21.9945 38.4275 21.0647 38.2425C20.135 38.0576 19.2809 37.6011 18.6106 36.9307C17.9403 36.2604 17.4838 35.4064 17.2989 34.4766C17.114 33.5468 17.2089 32.5831 17.5717 31.7073C17.9345 30.8315 18.5489 30.083 19.3371 29.5563C20.1253 29.0297 21.052 28.7486 22 28.7486C23.2708 28.7501 24.4891 29.2555 25.3876 30.1541C26.2862 31.0527 26.7916 32.271 26.793 33.5418L26.7928 33.5416ZM25.4803 33.5416C25.4803 32.8532 25.2762 32.1803 24.8938 31.6079C24.5113 31.0356 23.9677 30.5895 23.3317 30.326C22.6957 30.0626 21.9959 29.9937 21.3208 30.128C20.6456 30.2623 20.0254 30.5938 19.5387 31.0806C19.0519 31.5674 18.7205 32.1876 18.5862 32.8627C18.4519 33.5379 18.5209 34.2377 18.7843 34.8737C19.0478 35.5097 19.4939 36.0532 20.0663 36.4356C20.6387 36.8181 21.3116 37.0222 22 37.0221C22.9227 37.0211 23.8074 36.6541 24.4599 36.0016C25.1124 35.3492 25.4794 34.4645 25.4805 33.5418L25.4803 33.5416Z"/>
</mask>
<path d="M22 16.3973C22.174 16.3973 22.341 16.4664 22.464 16.5895C22.5871 16.7125 22.6562 16.8795 22.6562 17.0535V21.3919C22.6562 21.5659 22.5871 21.7329 22.464 21.8559C22.341 21.979 22.174 22.0481 22 22.0481C21.826 22.0481 21.659 21.979 21.536 21.8559C21.4129 21.7329 21.3438 21.5659 21.3438 21.3919V17.0535C21.3438 16.8795 21.4129 16.7125 21.536 16.5895C21.659 16.4664 21.826 16.3973 22 16.3973ZM15.9886 10.9319V4.74799C15.9886 4.63281 16.0189 4.51967 16.0765 4.41992C16.1341 4.32018 16.217 4.23735 16.3167 4.17976L21.6719 1.08792C21.7716 1.03032 21.8848 1 22 1C22.1152 1 22.2284 1.03032 22.3281 1.08792L27.6833 4.17976C27.783 4.23735 27.8659 4.32018 27.9235 4.41992C27.9811 4.51967 28.0114 4.63281 28.0114 4.74799V10.9316C28.0114 11.0468 27.9811 11.1599 27.9235 11.2597C27.8659 11.3595 27.7831 11.4423 27.6833 11.4999L22.3281 14.5917C22.2284 14.6493 22.1152 14.6797 22 14.6797C21.8848 14.6797 21.7716 14.6493 21.6719 14.5917L16.3167 11.5C16.2169 11.4424 16.1341 11.3595 16.0765 11.2598C16.0189 11.16 15.9886 11.0468 15.9886 10.9316V10.9319ZM17.3011 10.553L21.3438 12.8868V8.21874L17.3011 5.88462V10.553ZM26.6989 10.553V5.88462L22.6562 8.21874V12.8869L26.6989 10.553ZM17.9573 4.74808L22 7.08211L26.0427 4.74808L22 2.41396L17.9573 4.74808ZM36.9886 25.7071C36.8145 25.7071 36.6476 25.7762 36.5245 25.8993C36.4015 26.0224 36.3323 26.1893 36.3323 26.3633V28.5033L33.1038 31.7318C33.0423 31.7926 32.9934 31.8649 32.9599 31.9447C32.9264 32.0245 32.909 32.1101 32.9088 32.1966C32.9085 32.2831 32.9254 32.3688 32.9583 32.4488C32.9913 32.5288 33.0398 32.6015 33.101 32.6627C33.1621 32.7238 33.2348 32.7723 33.3148 32.8053C33.3948 32.8383 33.4805 32.8551 33.567 32.8549C33.6535 32.8546 33.7391 32.8373 33.8189 32.8038C33.8987 32.7703 33.971 32.7214 34.0319 32.6599L37.4526 29.2392C37.5135 29.1782 37.5618 29.1059 37.5948 29.0263C37.6278 28.9466 37.6448 28.8613 37.6448 28.7751V26.3634C37.6448 26.1894 37.5756 26.0225 37.4526 25.8994C37.3295 25.7763 37.1626 25.7072 36.9886 25.7071V25.7071ZM43 13.8067V19.9902C43 20.1054 42.9697 20.2186 42.9121 20.3183C42.8545 20.4181 42.7716 20.5009 42.6719 20.5585L37.3167 23.6503C37.2169 23.7079 37.1038 23.7382 36.9886 23.7382C36.8734 23.7382 36.7602 23.7079 36.6605 23.6503L31.3054 20.5585C31.2056 20.5009 31.1228 20.4181 31.0652 20.3183C31.0076 20.2186 30.9773 20.1054 30.9773 19.9902V13.8067C30.9773 13.6915 31.0076 13.5784 31.0652 13.4786C31.1228 13.3788 31.2056 13.296 31.3054 13.2384L36.6605 10.1466C36.7602 10.089 36.8734 10.0587 36.9886 10.0587C37.1038 10.0587 37.2169 10.089 37.3167 10.1466L42.6719 13.2384C42.7716 13.296 42.8545 13.3788 42.9121 13.4786C42.9697 13.5784 43 13.6915 43 13.8067ZM32.9459 13.8067L36.9886 16.1407L41.0312 13.8068L36.9886 11.4727L32.9459 13.8067ZM32.2897 19.6113L36.3323 21.9454V17.2774L32.2897 14.9433V19.6113ZM41.6874 19.6113V14.9433L37.6448 17.2774V21.9454L41.6874 19.6113ZM7.66766 28.5033V26.3634C7.66766 26.1894 7.59852 26.0224 7.47545 25.8994C7.35238 25.7763 7.18546 25.7071 7.01141 25.7071C6.83737 25.7071 6.67045 25.7763 6.54738 25.8994C6.4243 26.0224 6.35516 26.1894 6.35516 26.3634V28.7751C6.35516 28.8613 6.37213 28.9466 6.40511 29.0263C6.43809 29.1059 6.48643 29.1782 6.54736 29.2392L9.96807 32.6599C10.0914 32.7817 10.2579 32.8498 10.4313 32.8493C10.6046 32.8487 10.7707 32.7796 10.8933 32.657C11.0159 32.5344 11.085 32.3683 11.0855 32.195C11.086 32.0216 11.0179 31.8551 10.8961 31.7318L7.66766 28.5033ZM6.68329 23.6504L1.32812 20.5586C1.22835 20.501 1.1455 20.4182 1.0879 20.3184C1.03031 20.2186 0.999989 20.1054 1 19.9902V13.8067C1 13.6915 1.03033 13.5784 1.08792 13.4786C1.14552 13.3788 1.22836 13.296 1.32812 13.2384L6.68329 10.1465C6.78305 10.0889 6.89622 10.0586 7.01141 10.0586C7.12661 10.0586 7.23978 10.0889 7.33954 10.1465L12.6946 13.2382C12.7944 13.2958 12.8772 13.3787 12.9348 13.4784C12.9924 13.5782 13.0227 13.6914 13.0227 13.8065V19.9902C13.0227 20.1054 12.9924 20.2186 12.9348 20.3183C12.8772 20.4181 12.7944 20.5009 12.6946 20.5585L7.33954 23.6503C7.23978 23.7079 7.12661 23.7382 7.01141 23.7382C6.89622 23.7382 6.78305 23.7079 6.68329 23.6503V23.6504ZM11.7102 19.6114V14.9433L7.66766 17.2774V21.9454L11.7102 19.6114ZM2.96875 13.8068L7.01141 16.1407L11.0541 13.8068L7.01141 11.4727L2.96875 13.8068ZM2.3125 19.6114L6.35516 21.9454V17.2774L2.3125 14.9433V19.6114ZM31.4582 32.662V34.4212C31.4582 34.5539 31.418 34.6834 31.343 34.7927C31.2679 34.902 31.1615 34.9861 31.0377 35.0337L29.8923 35.4746C29.6966 36.2789 29.3777 37.0482 28.947 37.7551L28.9486 37.7587L29.4456 38.8777C29.4994 38.9989 29.5152 39.1335 29.491 39.2638C29.4667 39.3941 29.4036 39.514 29.3099 39.6078L28.0659 40.8518C27.9721 40.9455 27.8522 41.0087 27.7219 41.0329C27.5916 41.0571 27.457 41.0413 27.3358 40.9875L26.2136 40.4892C25.5067 40.92 24.7375 41.2389 23.9331 41.4346L23.9322 41.4368L23.4924 42.5796C23.4447 42.7034 23.3606 42.8098 23.2512 42.8849C23.1419 42.9599 23.0123 43.0001 22.8796 43H21.1204C20.9878 43 20.8583 42.9598 20.7489 42.8848C20.6396 42.8097 20.5556 42.7033 20.5079 42.5795L20.067 41.4341C19.2627 41.2384 18.4935 40.9196 17.7865 40.4889L17.7829 40.4904L16.6639 40.9874C16.5428 41.0411 16.4082 41.0569 16.2779 41.0327C16.1476 41.0085 16.0277 40.9454 15.9339 40.8518L14.6899 39.6078C14.5962 39.514 14.533 39.3941 14.5088 39.2638C14.4846 39.1335 14.5004 38.9989 14.5541 38.8777L15.0525 37.7555C14.6217 37.0486 14.3028 36.2794 14.1071 35.475L14.1047 35.4741L12.9621 35.0344C12.8383 34.9867 12.7319 34.9027 12.6568 34.7934C12.5817 34.684 12.5416 34.5545 12.5416 34.4219V32.6621C12.5415 32.5295 12.5817 32.4 12.6568 32.2906C12.7319 32.1813 12.8383 32.0973 12.962 32.0496L14.1073 31.6088C14.3029 30.8044 14.6218 30.0352 15.0527 29.3283L14.5541 28.2059C14.5003 28.0847 14.4845 27.9501 14.5088 27.8198C14.533 27.6895 14.5961 27.5696 14.6898 27.4758L15.9338 26.2317C16.0275 26.138 16.1475 26.0749 16.2778 26.0507C16.4081 26.0265 16.5427 26.0423 16.6639 26.0961L17.7865 26.5946C18.4934 26.1638 19.2627 25.845 20.067 25.6493L20.068 25.6467L20.5079 24.5039C20.5556 24.3802 20.6396 24.2737 20.7489 24.1987C20.8582 24.1236 20.9877 24.0834 21.1203 24.0834H22.8796C23.0122 24.0834 23.1417 24.1236 23.251 24.1987C23.3603 24.2737 23.4443 24.3802 23.492 24.5039L23.9329 25.6493C24.7372 25.845 25.5065 26.1639 26.2134 26.5946L27.336 26.0961C27.4571 26.0423 27.5917 26.0265 27.722 26.0507C27.8524 26.0749 27.9723 26.138 28.066 26.2317L29.3101 27.4757C29.4038 27.5694 29.467 27.6893 29.4912 27.8197C29.5154 27.95 29.4996 28.0846 29.4459 28.2057L28.9475 29.3279C29.3783 30.0348 29.6972 30.8041 29.8929 31.6084L29.8953 31.6092L31.0379 32.0491C31.1617 32.0968 31.2681 32.1809 31.3432 32.2903C31.4182 32.3997 31.4583 32.5293 31.4582 32.662ZM30.1457 33.1126L29.0919 32.707C28.9884 32.6671 28.8966 32.6016 28.8252 32.5166C28.7538 32.4317 28.7051 32.33 28.6837 32.2211C28.5108 31.3372 28.1625 30.497 27.6594 29.7501C27.5976 29.6579 27.5601 29.5516 27.5505 29.441C27.5409 29.3305 27.5595 29.2193 27.6045 29.1178L28.0632 28.085L27.4561 27.478L26.4226 27.9368C26.3211 27.9819 26.2099 28.0005 26.0994 27.9908C25.9888 27.9812 25.8825 27.9437 25.7904 27.8819C25.0438 27.3792 24.204 27.031 23.3207 26.858C23.2118 26.8367 23.1101 26.788 23.0251 26.7166C22.9401 26.6452 22.8746 26.5534 22.8347 26.4499L22.429 25.3961H21.5709L21.1653 26.4501C21.1254 26.5537 21.0599 26.6455 20.9749 26.7169C20.8899 26.7883 20.7881 26.837 20.6792 26.8584C19.7956 27.0314 18.9556 27.3796 18.2088 27.8825C18.1166 27.9444 18.0103 27.9819 17.8998 27.9915C17.7892 28.0011 17.678 27.9825 17.5766 27.9375L16.543 27.4786L15.936 28.0856L16.3949 29.1188C16.4399 29.2203 16.4585 29.3314 16.4489 29.442C16.4393 29.5525 16.4018 29.6588 16.3399 29.751C15.8371 30.4977 15.4891 31.3376 15.3163 32.2211C15.2949 32.33 15.2462 32.4316 15.1749 32.5166C15.1035 32.6016 15.0118 32.6671 14.9082 32.707L13.8541 33.1129V33.9709L14.9079 34.3765C15.0115 34.4163 15.1033 34.4818 15.1747 34.5668C15.246 34.6518 15.2947 34.7535 15.3161 34.8624C15.489 35.7462 15.8373 36.5864 16.3403 37.3334C16.4022 37.4255 16.4397 37.5318 16.4493 37.6424C16.459 37.753 16.4404 37.8642 16.3953 37.9657L15.9366 38.9984L16.5436 39.6055L17.5772 39.1467C17.6786 39.1017 17.7896 39.0832 17.9001 39.0928C18.0105 39.1024 18.1167 39.1398 18.2088 39.2015C18.9557 39.7043 19.7957 40.0524 20.6793 40.2252C20.7882 40.2466 20.8899 40.2952 20.9749 40.3666C21.0599 40.438 21.1255 40.5298 21.1653 40.6334L21.571 41.6875H22.429L22.8347 40.6337C22.8746 40.5302 22.9401 40.4384 23.025 40.367C23.11 40.2957 23.2117 40.247 23.3206 40.2256C24.2045 40.0526 25.0447 39.7043 25.7916 39.2012C25.8838 39.1393 25.9901 39.1018 26.1007 39.0922C26.2112 39.0826 26.3224 39.1012 26.4239 39.1463L27.4566 39.605L28.0637 38.9979L27.6047 37.9643C27.5597 37.8629 27.5411 37.7518 27.5507 37.6412C27.5603 37.5307 27.5977 37.4243 27.6596 37.3322C28.1624 36.5856 28.5106 35.7458 28.6836 34.8625C28.705 34.7536 28.7536 34.6518 28.825 34.5668C28.8964 34.4818 28.9882 34.4163 29.0918 34.3765L30.1459 33.9708L30.1457 33.1126ZM26.7928 33.5416C26.7928 34.4896 26.5117 35.4163 25.9851 36.2045C25.4584 36.9927 24.7098 37.607 23.834 37.9698C22.9582 38.3326 21.9945 38.4275 21.0647 38.2425C20.135 38.0576 19.2809 37.6011 18.6106 36.9307C17.9403 36.2604 17.4838 35.4064 17.2989 34.4766C17.114 33.5468 17.2089 32.5831 17.5717 31.7073C17.9345 30.8315 18.5489 30.083 19.3371 29.5563C20.1253 29.0297 21.052 28.7486 22 28.7486C23.2708 28.7501 24.4891 29.2555 25.3876 30.1541C26.2862 31.0527 26.7916 32.271 26.793 33.5418L26.7928 33.5416ZM25.4803 33.5416C25.4803 32.8532 25.2762 32.1803 24.8938 31.6079C24.5113 31.0356 23.9677 30.5895 23.3317 30.326C22.6957 30.0626 21.9959 29.9937 21.3208 30.128C20.6456 30.2623 20.0254 30.5938 19.5387 31.0806C19.0519 31.5674 18.7205 32.1876 18.5862 32.8627C18.4519 33.5379 18.5209 34.2377 18.7843 34.8737C19.0478 35.5097 19.4939 36.0532 20.0663 36.4356C20.6387 36.8181 21.3116 37.0222 22 37.0221C22.9227 37.0211 23.8074 36.6541 24.4599 36.0016C25.1124 35.3492 25.4794 34.4645 25.4805 33.5418L25.4803 33.5416Z" fill="black"/>
<path d="M22 16.3973C22.174 16.3973 22.341 16.4664 22.464 16.5895C22.5871 16.7125 22.6562 16.8795 22.6562 17.0535V21.3919C22.6562 21.5659 22.5871 21.7329 22.464 21.8559C22.341 21.979 22.174 22.0481 22 22.0481C21.826 22.0481 21.659 21.979 21.536 21.8559C21.4129 21.7329 21.3438 21.5659 21.3438 21.3919V17.0535C21.3438 16.8795 21.4129 16.7125 21.536 16.5895C21.659 16.4664 21.826 16.3973 22 16.3973ZM15.9886 10.9319V4.74799C15.9886 4.63281 16.0189 4.51967 16.0765 4.41992C16.1341 4.32018 16.217 4.23735 16.3167 4.17976L21.6719 1.08792C21.7716 1.03032 21.8848 1 22 1C22.1152 1 22.2284 1.03032 22.3281 1.08792L27.6833 4.17976C27.783 4.23735 27.8659 4.32018 27.9235 4.41992C27.9811 4.51967 28.0114 4.63281 28.0114 4.74799V10.9316C28.0114 11.0468 27.9811 11.1599 27.9235 11.2597C27.8659 11.3595 27.7831 11.4423 27.6833 11.4999L22.3281 14.5917C22.2284 14.6493 22.1152 14.6797 22 14.6797C21.8848 14.6797 21.7716 14.6493 21.6719 14.5917L16.3167 11.5C16.2169 11.4424 16.1341 11.3595 16.0765 11.2598C16.0189 11.16 15.9886 11.0468 15.9886 10.9316V10.9319ZM17.3011 10.553L21.3438 12.8868V8.21874L17.3011 5.88462V10.553ZM26.6989 10.553V5.88462L22.6562 8.21874V12.8869L26.6989 10.553ZM17.9573 4.74808L22 7.08211L26.0427 4.74808L22 2.41396L17.9573 4.74808ZM36.9886 25.7071C36.8145 25.7071 36.6476 25.7762 36.5245 25.8993C36.4015 26.0224 36.3323 26.1893 36.3323 26.3633V28.5033L33.1038 31.7318C33.0423 31.7926 32.9934 31.8649 32.9599 31.9447C32.9264 32.0245 32.909 32.1101 32.9088 32.1966C32.9085 32.2831 32.9254 32.3688 32.9583 32.4488C32.9913 32.5288 33.0398 32.6015 33.101 32.6627C33.1621 32.7238 33.2348 32.7723 33.3148 32.8053C33.3948 32.8383 33.4805 32.8551 33.567 32.8549C33.6535 32.8546 33.7391 32.8373 33.8189 32.8038C33.8987 32.7703 33.971 32.7214 34.0319 32.6599L37.4526 29.2392C37.5135 29.1782 37.5618 29.1059 37.5948 29.0263C37.6278 28.9466 37.6448 28.8613 37.6448 28.7751V26.3634C37.6448 26.1894 37.5756 26.0225 37.4526 25.8994C37.3295 25.7763 37.1626 25.7072 36.9886 25.7071V25.7071ZM43 13.8067V19.9902C43 20.1054 42.9697 20.2186 42.9121 20.3183C42.8545 20.4181 42.7716 20.5009 42.6719 20.5585L37.3167 23.6503C37.2169 23.7079 37.1038 23.7382 36.9886 23.7382C36.8734 23.7382 36.7602 23.7079 36.6605 23.6503L31.3054 20.5585C31.2056 20.5009 31.1228 20.4181 31.0652 20.3183C31.0076 20.2186 30.9773 20.1054 30.9773 19.9902V13.8067C30.9773 13.6915 31.0076 13.5784 31.0652 13.4786C31.1228 13.3788 31.2056 13.296 31.3054 13.2384L36.6605 10.1466C36.7602 10.089 36.8734 10.0587 36.9886 10.0587C37.1038 10.0587 37.2169 10.089 37.3167 10.1466L42.6719 13.2384C42.7716 13.296 42.8545 13.3788 42.9121 13.4786C42.9697 13.5784 43 13.6915 43 13.8067ZM32.9459 13.8067L36.9886 16.1407L41.0312 13.8068L36.9886 11.4727L32.9459 13.8067ZM32.2897 19.6113L36.3323 21.9454V17.2774L32.2897 14.9433V19.6113ZM41.6874 19.6113V14.9433L37.6448 17.2774V21.9454L41.6874 19.6113ZM7.66766 28.5033V26.3634C7.66766 26.1894 7.59852 26.0224 7.47545 25.8994C7.35238 25.7763 7.18546 25.7071 7.01141 25.7071C6.83737 25.7071 6.67045 25.7763 6.54738 25.8994C6.4243 26.0224 6.35516 26.1894 6.35516 26.3634V28.7751C6.35516 28.8613 6.37213 28.9466 6.40511 29.0263C6.43809 29.1059 6.48643 29.1782 6.54736 29.2392L9.96807 32.6599C10.0914 32.7817 10.2579 32.8498 10.4313 32.8493C10.6046 32.8487 10.7707 32.7796 10.8933 32.657C11.0159 32.5344 11.085 32.3683 11.0855 32.195C11.086 32.0216 11.0179 31.8551 10.8961 31.7318L7.66766 28.5033ZM6.68329 23.6504L1.32812 20.5586C1.22835 20.501 1.1455 20.4182 1.0879 20.3184C1.03031 20.2186 0.999989 20.1054 1 19.9902V13.8067C1 13.6915 1.03033 13.5784 1.08792 13.4786C1.14552 13.3788 1.22836 13.296 1.32812 13.2384L6.68329 10.1465C6.78305 10.0889 6.89622 10.0586 7.01141 10.0586C7.12661 10.0586 7.23978 10.0889 7.33954 10.1465L12.6946 13.2382C12.7944 13.2958 12.8772 13.3787 12.9348 13.4784C12.9924 13.5782 13.0227 13.6914 13.0227 13.8065V19.9902C13.0227 20.1054 12.9924 20.2186 12.9348 20.3183C12.8772 20.4181 12.7944 20.5009 12.6946 20.5585L7.33954 23.6503C7.23978 23.7079 7.12661 23.7382 7.01141 23.7382C6.89622 23.7382 6.78305 23.7079 6.68329 23.6503V23.6504ZM11.7102 19.6114V14.9433L7.66766 17.2774V21.9454L11.7102 19.6114ZM2.96875 13.8068L7.01141 16.1407L11.0541 13.8068L7.01141 11.4727L2.96875 13.8068ZM2.3125 19.6114L6.35516 21.9454V17.2774L2.3125 14.9433V19.6114ZM31.4582 32.662V34.4212C31.4582 34.5539 31.418 34.6834 31.343 34.7927C31.2679 34.902 31.1615 34.9861 31.0377 35.0337L29.8923 35.4746C29.6966 36.2789 29.3777 37.0482 28.947 37.7551L28.9486 37.7587L29.4456 38.8777C29.4994 38.9989 29.5152 39.1335 29.491 39.2638C29.4667 39.3941 29.4036 39.514 29.3099 39.6078L28.0659 40.8518C27.9721 40.9455 27.8522 41.0087 27.7219 41.0329C27.5916 41.0571 27.457 41.0413 27.3358 40.9875L26.2136 40.4892C25.5067 40.92 24.7375 41.2389 23.9331 41.4346L23.9322 41.4368L23.4924 42.5796C23.4447 42.7034 23.3606 42.8098 23.2512 42.8849C23.1419 42.9599 23.0123 43.0001 22.8796 43H21.1204C20.9878 43 20.8583 42.9598 20.7489 42.8848C20.6396 42.8097 20.5556 42.7033 20.5079 42.5795L20.067 41.4341C19.2627 41.2384 18.4935 40.9196 17.7865 40.4889L17.7829 40.4904L16.6639 40.9874C16.5428 41.0411 16.4082 41.0569 16.2779 41.0327C16.1476 41.0085 16.0277 40.9454 15.9339 40.8518L14.6899 39.6078C14.5962 39.514 14.533 39.3941 14.5088 39.2638C14.4846 39.1335 14.5004 38.9989 14.5541 38.8777L15.0525 37.7555C14.6217 37.0486 14.3028 36.2794 14.1071 35.475L14.1047 35.4741L12.9621 35.0344C12.8383 34.9867 12.7319 34.9027 12.6568 34.7934C12.5817 34.684 12.5416 34.5545 12.5416 34.4219V32.6621C12.5415 32.5295 12.5817 32.4 12.6568 32.2906C12.7319 32.1813 12.8383 32.0973 12.962 32.0496L14.1073 31.6088C14.3029 30.8044 14.6218 30.0352 15.0527 29.3283L14.5541 28.2059C14.5003 28.0847 14.4845 27.9501 14.5088 27.8198C14.533 27.6895 14.5961 27.5696 14.6898 27.4758L15.9338 26.2317C16.0275 26.138 16.1475 26.0749 16.2778 26.0507C16.4081 26.0265 16.5427 26.0423 16.6639 26.0961L17.7865 26.5946C18.4934 26.1638 19.2627 25.845 20.067 25.6493L20.068 25.6467L20.5079 24.5039C20.5556 24.3802 20.6396 24.2737 20.7489 24.1987C20.8582 24.1236 20.9877 24.0834 21.1203 24.0834H22.8796C23.0122 24.0834 23.1417 24.1236 23.251 24.1987C23.3603 24.2737 23.4443 24.3802 23.492 24.5039L23.9329 25.6493C24.7372 25.845 25.5065 26.1639 26.2134 26.5946L27.336 26.0961C27.4571 26.0423 27.5917 26.0265 27.722 26.0507C27.8524 26.0749 27.9723 26.138 28.066 26.2317L29.3101 27.4757C29.4038 27.5694 29.467 27.6893 29.4912 27.8197C29.5154 27.95 29.4996 28.0846 29.4459 28.2057L28.9475 29.3279C29.3783 30.0348 29.6972 30.8041 29.8929 31.6084L29.8953 31.6092L31.0379 32.0491C31.1617 32.0968 31.2681 32.1809 31.3432 32.2903C31.4182 32.3997 31.4583 32.5293 31.4582 32.662ZM30.1457 33.1126L29.0919 32.707C28.9884 32.6671 28.8966 32.6016 28.8252 32.5166C28.7538 32.4317 28.7051 32.33 28.6837 32.2211C28.5108 31.3372 28.1625 30.497 27.6594 29.7501C27.5976 29.6579 27.5601 29.5516 27.5505 29.441C27.5409 29.3305 27.5595 29.2193 27.6045 29.1178L28.0632 28.085L27.4561 27.478L26.4226 27.9368C26.3211 27.9819 26.2099 28.0005 26.0994 27.9908C25.9888 27.9812 25.8825 27.9437 25.7904 27.8819C25.0438 27.3792 24.204 27.031 23.3207 26.858C23.2118 26.8367 23.1101 26.788 23.0251 26.7166C22.9401 26.6452 22.8746 26.5534 22.8347 26.4499L22.429 25.3961H21.5709L21.1653 26.4501C21.1254 26.5537 21.0599 26.6455 20.9749 26.7169C20.8899 26.7883 20.7881 26.837 20.6792 26.8584C19.7956 27.0314 18.9556 27.3796 18.2088 27.8825C18.1166 27.9444 18.0103 27.9819 17.8998 27.9915C17.7892 28.0011 17.678 27.9825 17.5766 27.9375L16.543 27.4786L15.936 28.0856L16.3949 29.1188C16.4399 29.2203 16.4585 29.3314 16.4489 29.442C16.4393 29.5525 16.4018 29.6588 16.3399 29.751C15.8371 30.4977 15.4891 31.3376 15.3163 32.2211C15.2949 32.33 15.2462 32.4316 15.1749 32.5166C15.1035 32.6016 15.0118 32.6671 14.9082 32.707L13.8541 33.1129V33.9709L14.9079 34.3765C15.0115 34.4163 15.1033 34.4818 15.1747 34.5668C15.246 34.6518 15.2947 34.7535 15.3161 34.8624C15.489 35.7462 15.8373 36.5864 16.3403 37.3334C16.4022 37.4255 16.4397 37.5318 16.4493 37.6424C16.459 37.753 16.4404 37.8642 16.3953 37.9657L15.9366 38.9984L16.5436 39.6055L17.5772 39.1467C17.6786 39.1017 17.7896 39.0832 17.9001 39.0928C18.0105 39.1024 18.1167 39.1398 18.2088 39.2015C18.9557 39.7043 19.7957 40.0524 20.6793 40.2252C20.7882 40.2466 20.8899 40.2952 20.9749 40.3666C21.0599 40.438 21.1255 40.5298 21.1653 40.6334L21.571 41.6875H22.429L22.8347 40.6337C22.8746 40.5302 22.9401 40.4384 23.025 40.367C23.11 40.2957 23.2117 40.247 23.3206 40.2256C24.2045 40.0526 25.0447 39.7043 25.7916 39.2012C25.8838 39.1393 25.9901 39.1018 26.1007 39.0922C26.2112 39.0826 26.3224 39.1012 26.4239 39.1463L27.4566 39.605L28.0637 38.9979L27.6047 37.9643C27.5597 37.8629 27.5411 37.7518 27.5507 37.6412C27.5603 37.5307 27.5977 37.4243 27.6596 37.3322C28.1624 36.5856 28.5106 35.7458 28.6836 34.8625C28.705 34.7536 28.7536 34.6518 28.825 34.5668C28.8964 34.4818 28.9882 34.4163 29.0918 34.3765L30.1459 33.9708L30.1457 33.1126ZM26.7928 33.5416C26.7928 34.4896 26.5117 35.4163 25.9851 36.2045C25.4584 36.9927 24.7098 37.607 23.834 37.9698C22.9582 38.3326 21.9945 38.4275 21.0647 38.2425C20.135 38.0576 19.2809 37.6011 18.6106 36.9307C17.9403 36.2604 17.4838 35.4064 17.2989 34.4766C17.114 33.5468 17.2089 32.5831 17.5717 31.7073C17.9345 30.8315 18.5489 30.083 19.3371 29.5563C20.1253 29.0297 21.052 28.7486 22 28.7486C23.2708 28.7501 24.4891 29.2555 25.3876 30.1541C26.2862 31.0527 26.7916 32.271 26.793 33.5418L26.7928 33.5416ZM25.4803 33.5416C25.4803 32.8532 25.2762 32.1803 24.8938 31.6079C24.5113 31.0356 23.9677 30.5895 23.3317 30.326C22.6957 30.0626 21.9959 29.9937 21.3208 30.128C20.6456 30.2623 20.0254 30.5938 19.5387 31.0806C19.0519 31.5674 18.7205 32.1876 18.5862 32.8627C18.4519 33.5379 18.5209 34.2377 18.7843 34.8737C19.0478 35.5097 19.4939 36.0532 20.0663 36.4356C20.6387 36.8181 21.3116 37.0222 22 37.0221C22.9227 37.0211 23.8074 36.6541 24.4599 36.0016C25.1124 35.3492 25.4794 34.4645 25.4805 33.5418L25.4803 33.5416Z" stroke="black" stroke-width="0.6" mask="url(#path-1-outside-1_4067_128871)"/>
</g>
<defs>
<clipPath id="clip0_4067_128871">
<rect width="44" height="44" fill="white"/>
</clipPath>
</defs>
</svg>
