<svg width="44" height="44" viewBox="0 0 44 44" fill="none" xmlns="http://www.w3.org/2000/svg">
<g clip-path="url(#clip0_4067_128899)">
<path d="M14.8492 22.1401C14.8492 19.5536 12.7446 17.4495 10.1578 17.4495C7.57131 17.4495 5.46716 19.5536 5.46716 22.1401C5.46716 24.7265 7.57131 26.8307 10.1578 26.8307C12.7446 26.8307 14.8492 24.7264 14.8492 22.1401ZM7.18596 22.1401C7.18596 20.5014 8.51915 19.1683 10.1578 19.1683C11.7969 19.1683 13.1304 20.5014 13.1304 22.1401C13.1304 23.7787 11.7969 25.1119 10.1578 25.1119C8.51915 25.1119 7.18596 23.7787 7.18596 22.1401Z" fill="black"/>
<path d="M11.0463 32.995C12.0984 32.995 13.0301 32.2865 13.3127 31.2701L13.5653 30.3538C13.5798 30.3011 13.6169 30.2573 13.6639 30.2369C14.2821 29.9688 14.8708 29.6282 15.4125 29.2253C15.4551 29.1938 15.5124 29.1833 15.5669 29.1976L16.4896 29.4366C17.5092 29.6998 18.5887 29.2475 19.1153 28.3362L20.0019 26.7991C20.5284 25.8878 20.381 24.7265 19.6423 23.9744L18.9742 23.2959C18.935 23.2556 18.916 23.2028 18.9221 23.15C18.9991 22.48 18.999 21.7995 18.922 21.1293C18.916 21.0774 18.9348 21.025 18.974 20.9852L19.6432 20.3049C20.381 19.5537 20.5284 18.3924 20.0021 17.4814L19.1149 15.9435C18.5885 15.0325 17.509 14.5802 16.4889 14.8436L15.5659 15.0827C15.5121 15.0965 15.4548 15.0863 15.4135 15.0556C14.8707 14.6519 14.282 14.3112 13.6642 14.0433C13.6167 14.0228 13.5798 13.979 13.5652 13.926L13.3121 13.0081C13.03 11.9935 12.0982 11.2849 11.0463 11.2849H9.27074C8.21737 11.2849 7.28553 11.9939 7.00467 13.0092L6.75107 13.9264C6.73654 13.979 6.69985 14.0225 6.65232 14.0431C6.03502 14.3107 5.44624 14.6512 4.90155 15.0556C4.86022 15.0864 4.80367 15.0964 4.74927 15.0824L3.82662 14.8434C2.80763 14.5803 1.72831 15.0327 1.20193 15.9436L0.314773 17.4801C-0.213328 18.3917 -0.0654254 19.5536 0.674259 20.3053L1.34115 20.9834C1.38086 21.024 1.40019 21.0772 1.39401 21.1301C1.31692 21.8006 1.31726 22.4812 1.39409 23.1517C1.40002 23.2028 1.38068 23.2565 1.34201 23.2958L0.674345 23.9746C-0.0654253 24.7266 -0.213328 25.8884 0.314085 26.7988L1.20202 28.3366C1.72831 29.2475 2.8078 29.6998 3.82713 29.4364L4.74996 29.1974C4.8035 29.1835 4.8603 29.1935 4.90233 29.2248C5.44624 29.6287 6.0351 29.9692 6.65284 30.237C6.70045 30.2576 6.7362 30.3001 6.75124 30.3547L7.00476 31.2707C7.28561 32.2859 8.21737 32.995 9.27082 32.995H11.0463V32.995ZM8.66134 30.8125L8.40807 29.8973C8.25433 29.3393 7.86347 28.8882 7.33614 28.66C6.8395 28.4446 6.36545 28.1705 5.92768 27.8454C5.46902 27.5041 4.8713 27.39 4.31837 27.5336L3.39675 27.7723C3.12226 27.8438 2.83187 27.7217 2.69041 27.4769L1.80205 25.9383C1.66059 25.6941 1.70072 25.3822 1.89976 25.1799L2.56717 24.5013C2.97306 24.0892 3.1678 23.5252 3.10163 22.9549C3.03975 22.4152 3.0395 21.8669 3.10154 21.3271C3.16755 20.7568 2.97324 20.1929 2.5676 19.7792L1.89968 19.1001C1.70072 18.8979 1.66059 18.5861 1.80274 18.3408L2.69041 16.8035C2.83195 16.5584 3.12226 16.4367 3.39632 16.5077L4.31759 16.7463C4.87878 16.8925 5.46566 16.7788 5.92716 16.4353C6.36554 16.1098 6.83958 15.8356 7.3358 15.6205C7.8633 15.3922 8.25407 14.9417 8.40799 14.3845L8.66151 13.4676C8.73705 13.1946 8.98765 13.0039 9.27099 13.0039H11.0465C11.3295 13.0039 11.5802 13.195 11.6558 13.4669L11.9084 14.3828C12.062 14.9401 12.4525 15.391 12.9803 15.6202C13.4775 15.8358 13.951 16.1098 14.3889 16.4355C14.8517 16.7787 15.4385 16.8919 15.9981 16.7465L16.9197 16.5078C17.1947 16.4367 17.4855 16.5584 17.6268 16.803L18.5139 18.341C18.6555 18.5861 18.6158 18.8985 18.4176 19.1002L17.7492 19.7797C17.3435 20.1919 17.1488 20.7558 17.2148 21.3264C17.2768 21.8657 17.2769 22.4138 17.2149 22.9531C17.1488 23.5237 17.3432 24.0875 17.7482 24.5003C17.7485 24.5007 17.749 24.5012 17.7493 24.5015L18.4171 25.1796C18.6157 25.3819 18.6555 25.6943 18.5136 25.9399L17.627 27.4769C17.4854 27.7219 17.1946 27.8437 16.9202 27.7726L15.9987 27.534C15.4384 27.3887 14.8517 27.5016 14.3879 27.8455C13.9509 28.1705 13.4773 28.4446 12.9798 28.6602C12.4524 28.8892 12.0618 29.3402 11.9083 29.8973L11.6561 30.8118C11.58 31.0855 11.3293 31.2765 11.0463 31.2765H9.27074C8.98748 31.2762 8.73688 31.0855 8.66134 30.8125Z" fill="black"/>
<path d="M41.5078 27.5696V13.5619C41.5078 12.2083 40.4065 11.1071 39.0529 11.1071H26.9422C25.5885 11.1071 24.4873 12.2083 24.4873 13.5619V26.2343C24.4873 26.7089 24.8721 27.0937 25.3467 27.0937C25.8213 27.0937 26.2061 26.7089 26.2061 26.2343V13.5619C26.2061 13.156 26.5364 12.8259 26.9422 12.8259H39.0528C39.4587 12.8259 39.7889 13.1561 39.7889 13.5619V26.7303C39.1507 26.5411 38.4792 26.4614 37.8145 26.4948C35.2074 26.6238 32.9347 28.5387 32.3652 31.0864H26.9422C26.5363 31.0864 26.2061 30.7562 26.2061 30.3504V25.7943C26.2061 25.3198 25.8213 24.9349 25.3467 24.9349C24.8721 24.9349 24.4873 25.3198 24.4873 25.7943V30.3504C24.4873 31.704 25.5885 32.8052 26.9422 32.8052H32.2412C32.4624 35.8517 35.01 38.2633 38.1119 38.2633C41.3585 38.2633 43.9999 35.622 43.9999 32.3753C44 30.3926 43.014 28.6371 41.5078 27.5696ZM38.1119 36.5444C35.813 36.5444 33.9427 34.6741 33.9427 32.3752C33.9427 30.0962 35.8771 28.1843 38.156 28.207C40.4087 28.231 42.2811 30.1227 42.2811 32.3752C42.2812 34.6741 40.4109 36.5444 38.1119 36.5444Z" fill="black"/>
<path d="M29.6481 18.0153H36.4373C36.9119 18.0153 37.2967 17.6305 37.2967 17.1559C37.2967 16.6813 36.9119 16.2965 36.4373 16.2965H29.6481C29.1735 16.2965 28.7887 16.6813 28.7887 17.1559C28.7887 17.6305 29.1734 18.0153 29.6481 18.0153Z" fill="black"/>
<path d="M29.6481 22.8099H36.4373C36.9119 22.8099 37.2967 22.425 37.2967 21.9505C37.2967 21.4759 36.9119 21.0911 36.4373 21.0911H29.6481C29.1735 21.0911 28.7887 21.4759 28.7887 21.9505C28.7887 22.425 29.1734 22.8099 29.6481 22.8099Z" fill="black"/>
<path d="M29.6481 27.7763H31.9135C32.388 27.7763 32.7729 27.3915 32.7729 26.9169C32.7729 26.4423 32.388 26.0575 31.9135 26.0575H29.6481C29.1735 26.0575 28.7887 26.4423 28.7887 26.9169C28.7887 27.3915 29.1734 27.7763 29.6481 27.7763Z" fill="black"/>
<path d="M39.1657 30.9142L37.4307 32.6493L36.8919 32.1105C36.5563 31.775 36.0121 31.775 35.6765 32.1105C35.3409 32.4462 35.3409 32.9903 35.6765 33.326L36.8229 34.4723C36.9908 34.6401 37.2107 34.724 37.4306 34.724C37.6505 34.724 37.8705 34.6401 38.0383 34.4723L40.381 32.1296C40.7166 31.794 40.7166 31.2498 40.381 30.9142C40.0453 30.5787 39.5013 30.5787 39.1657 30.9142Z" fill="black"/>
<path d="M30.7567 36.6107C27.8124 38.6249 24.3631 39.6897 20.7816 39.6897C17.4996 39.6897 14.3688 38.8113 11.616 37.1342L12.8826 36.9325C13.3513 36.8579 13.6709 36.4174 13.5962 35.9487C13.5216 35.4799 13.081 35.1615 12.6123 35.2351L9.24307 35.7715C8.7429 35.8512 8.42003 36.3628 8.54816 36.8494L9.2209 40.0656C9.31672 40.5234 9.77977 40.8267 10.238 40.7307C10.7026 40.6335 11.0005 40.1781 10.9033 39.7135L10.6633 38.5666C13.6989 40.4314 17.1562 41.4085 20.7815 41.4085C24.7108 41.4085 28.4957 40.2399 31.7271 38.0292C32.1189 37.7613 32.2192 37.2264 31.951 36.8347C31.6833 36.4429 31.1484 36.3426 30.7567 36.6107Z" fill="black"/>
<path d="M9.00153 8.53147C9.19377 8.53147 9.38723 8.46727 9.54725 8.33561C12.7005 5.73972 16.6903 4.31011 20.7817 4.31011C24.1979 4.31011 27.543 5.30752 30.3896 7.14758L29.0584 7.35942C28.5897 7.43402 28.2701 7.87446 28.3447 8.34318C28.4183 8.80571 28.8662 9.12996 29.3284 9.05691L32.6974 8.52081C33.1743 8.44467 33.5034 7.96985 33.4035 7.49615L32.7199 4.22649C32.6229 3.76198 32.1679 3.46394 31.7028 3.56123C31.2383 3.65834 30.9403 4.11373 31.0375 4.57832L31.2653 5.66753C28.1543 3.67235 24.5066 2.59131 20.7818 2.59131C16.2929 2.59131 11.9151 4.16005 8.45495 7.00853C8.0885 7.31027 8.03599 7.85177 8.33764 8.21822C8.50746 8.42473 8.75351 8.53147 9.00153 8.53147Z" fill="black"/>
</g>
<defs>
<clipPath id="clip0_4067_128899">
<rect width="44" height="44" fill="white"/>
</clipPath>
</defs>
</svg>
