<svg width="44" height="44" viewBox="0 0 44 44" fill="none" xmlns="http://www.w3.org/2000/svg">
<g clip-path="url(#clip0_4067_128880)">
<path d="M34.8432 35.0793C34.4688 34.7931 33.9339 34.8649 33.6479 35.239C33.3619 35.6131 33.4335 36.1482 33.8076 36.4342L35.2647 37.5479C35.4188 37.6656 35.6009 37.7231 35.7821 37.7231C36.0153 37.7231 36.2469 37.6278 36.4144 37.4428L39.1995 34.3676C39.5156 34.0186 39.489 33.4794 39.1399 33.1633C38.7909 32.8472 38.2516 32.8739 37.9356 33.2229L35.6771 35.7167L34.8432 35.0793Z" fill="black"/>
<path d="M43.8963 30.5278C43.8865 30.093 43.5512 29.7354 43.1181 29.6975C41.0898 29.5203 38.5937 28.1577 36.7589 26.2266C36.5979 26.0572 36.3746 25.9613 36.141 25.9612C35.9075 25.9612 35.6839 26.057 35.523 26.2261C34.6994 27.0918 33.7434 27.8428 32.7569 28.4244C31.0258 26.4919 28.8952 25.0681 26.3981 24.1719C26.3763 24.1631 26.3543 24.1553 26.3318 24.1483C26.1373 24.0794 25.9405 24.0137 25.7416 23.9511C27.8534 21.8449 29.274 19.077 29.274 16.594V15.2544C30.2723 14.8197 30.9724 13.8233 30.9724 12.666C30.9724 11.4638 30.2157 10.4356 29.1539 10.031C28.7157 5.77621 25.718 2.1995 21.6003 1.01619C21.4786 0.436643 20.9637 0 20.3486 0H17.2588C16.6655 0 16.1668 0.406545 16.0229 0.955397C13.9974 1.49555 12.1473 2.64851 10.7602 4.25149C9.35235 5.87852 8.47685 7.91039 8.25447 10.0315C7.19216 10.4363 6.43526 11.4642 6.43526 12.6661C6.43526 13.8238 7.13639 14.8205 8.13604 15.2549V16.5941C8.13604 19.0748 9.55682 21.8437 11.6686 23.9513C11.4755 24.012 11.2842 24.0756 11.0952 24.1422C11.058 24.1528 11.0218 24.1659 10.9866 24.1813C8.19163 25.1896 5.85818 26.8585 4.03078 29.1633C2.27329 31.3801 1.0239 34.1175 0.317392 37.3003C0.0659453 38.4377 -0.123173 39.8671 0.652399 40.8328C1.40998 41.7761 2.76553 41.897 3.86195 41.897H19.4396C19.9105 41.897 20.2922 41.5152 20.2922 41.0444C20.2922 40.5735 19.9105 40.1917 19.4396 40.1917H3.86195C2.84192 40.1917 2.20943 40.0481 1.98203 39.765C1.74115 39.465 1.74132 38.7596 1.98228 37.6691C2.86844 33.6776 5.0352 28.7932 10.2557 26.3271C10.0952 29.2076 11.656 31.0904 12.648 32.2854C12.7999 32.4684 13.0212 32.5796 13.2587 32.5923C13.496 32.6054 13.7281 32.5179 13.8985 32.3522L18.7039 27.679L23.5116 32.3523C23.6711 32.5074 23.8844 32.5936 24.1059 32.5936C24.1211 32.5936 24.1364 32.5931 24.1518 32.5923C24.3893 32.5795 24.6107 32.4681 24.7625 32.2848C25.7532 31.0888 27.3117 29.2049 27.1526 26.3304C28.6671 27.0489 30.0053 28.0097 31.156 29.2067C30.4689 29.4726 29.7932 29.6425 29.1632 29.6976C28.7304 29.7354 28.3952 30.0927 28.3851 30.5272C28.3137 33.5756 28.8218 35.7597 30.1965 38.3161C30.208 38.3377 30.6726 39.1704 31.3964 40.1919H17.1589C16.688 40.1919 16.3062 40.5737 16.3062 41.0445C16.3062 41.5154 16.688 41.8972 17.1589 41.8972H32.7506C33.7785 43.0333 34.9909 44.0002 36.1406 44.0002C38.9145 44.0002 42.0543 38.3729 42.0845 38.3166C43.4569 35.7599 43.9648 33.5762 43.8963 30.5278ZM27.4135 9.84694H22.719C21.832 7.53003 21.6642 5.61949 21.6341 2.81486C24.7095 3.90259 26.9453 6.61624 27.4135 9.84694ZM17.6847 1.7053H19.9226C19.928 5.00575 20.0116 7.24106 20.9051 9.84694H16.7039C17.5959 7.24098 17.6794 5.00541 17.6847 1.7053ZM15.974 2.74759C15.9459 5.58913 15.7829 7.51144 14.8905 9.84702H9.9961C10.4825 6.57429 12.8351 3.78705 15.974 2.74759ZM9.25677 11.5522H14.9608C15.0111 11.593 15.0597 11.5982 15.1004 11.5522H28.1532C28.7674 11.5522 29.2671 12.0518 29.2671 12.6661C29.2671 13.2816 28.7675 13.7824 28.1532 13.7824H9.25677C8.64132 13.7824 8.14056 13.2816 8.14056 12.6661C8.14056 12.0519 8.64124 11.5522 9.25677 11.5522ZM9.84134 16.5941V15.4876H27.5686V16.5941C27.5686 19.8449 24.4192 23.8654 20.8289 25.1982C19.2579 25.782 18.1425 25.7815 16.5678 25.1963C12.9846 23.8581 9.84134 19.8382 9.84134 16.5941ZM13.38 30.4776C12.4975 29.3255 11.6478 27.8129 12.0562 25.6172C12.4323 25.4958 12.8209 25.3851 13.2239 25.2871C14.0837 25.9179 15.0111 26.4353 15.9724 26.7943C16.2819 26.9093 16.5796 27.004 16.8709 27.0828L13.38 30.4776ZM24.0291 30.4771L20.5362 27.0818C20.8237 27.0037 21.1175 26.9102 21.4226 26.7968C22.3887 26.4382 23.3206 25.9198 24.1844 25.2869C24.5824 25.3838 24.9717 25.4935 25.3514 25.6165C25.7608 27.8091 24.9114 29.3232 24.0291 30.4771ZM40.5817 37.5106C39.5733 39.3924 37.2119 42.2947 36.1406 42.2947C35.0694 42.2947 32.7079 39.3924 31.699 37.5094C30.5722 35.4142 30.1098 33.667 30.0848 31.2882C31.0046 31.1131 31.9622 30.7698 32.9039 30.2905C32.937 30.2761 32.9692 30.2591 33.0008 30.2402C34.1004 29.6686 35.1758 28.9122 36.1403 28.0133C37.9563 29.7075 40.1671 30.9023 42.1958 31.2882C42.169 33.6675 41.7067 35.415 40.5817 37.5106Z" fill="black"/>
</g>
<defs>
<clipPath id="clip0_4067_128880">
<rect width="44" height="44" fill="white"/>
</clipPath>
</defs>
</svg>
