<svg width="20" height="20" viewBox="0 0 20 20" fill="none" xmlns="http://www.w3.org/2000/svg">
<path d="M9.83366 18.9584H7.50033C2.97533 18.9584 1.04199 17.0251 1.04199 12.5001V7.50008C1.04199 2.97508 2.97533 1.04175 7.50033 1.04175H12.5003C17.0253 1.04175 18.9587 2.97508 18.9587 7.50008V9.83341C18.9587 10.1751 18.6753 10.4584 18.3337 10.4584C17.992 10.4584 17.7087 10.1751 17.7087 9.83341V7.50008C17.7087 3.65841 16.342 2.29175 12.5003 2.29175H7.50033C3.65866 2.29175 2.29199 3.65841 2.29199 7.50008V12.5001C2.29199 16.3417 3.65866 17.7084 7.50033 17.7084H9.83366C10.1753 17.7084 10.4587 17.9917 10.4587 18.3334C10.4587 18.6751 10.1753 18.9584 9.83366 18.9584Z" fill="#7E8189"/>
<path d="M5.83398 12.2417C5.49232 12.2417 5.20898 11.9583 5.20898 11.6167V8.94165C5.20898 8.59998 5.49232 8.31665 5.83398 8.31665C6.17565 8.31665 6.45898 8.59998 6.45898 8.94165V11.6167C6.45898 11.9667 6.17565 12.2417 5.83398 12.2417Z" fill="#7E8189"/>
<path d="M14.167 12.2418C13.8253 12.2418 13.542 11.9584 13.542 11.6168V8.94177C13.542 8.60011 13.8253 8.31677 14.167 8.31677C14.5087 8.31677 14.792 8.60011 14.792 8.94177V11.6168C14.792 11.9668 14.5087 12.2418 14.167 12.2418Z" fill="#7E8189"/>
<path d="M14.9427 18.586C14.7761 18.586 14.6177 18.5193 14.5011 18.4026L12.1844 16.0943C11.9427 15.8526 11.9344 15.4526 12.1844 15.211C12.4261 14.9693 12.8261 14.961 13.0677 15.211L14.9094 17.0443L18.3261 13.2193C18.5511 12.9526 18.9427 12.9276 19.2094 13.1526C19.4677 13.3776 19.5011 13.7693 19.2761 14.036L15.4261 18.3693C15.3094 18.5026 15.1511 18.5776 14.9761 18.586C14.9594 18.586 14.9511 18.586 14.9427 18.586Z" fill="#7E8189"/>
<path d="M10 11.875C9.65833 11.875 9.375 11.5917 9.375 11.25V8.75C9.375 8.40833 9.65833 8.125 10 8.125C10.3417 8.125 10.625 8.40833 10.625 8.75V11.25C10.625 11.5917 10.3417 11.875 10 11.875Z" fill="#7E8189"/>
</svg>
