<svg width="44" height="44" viewBox="0 0 44 44" fill="none" xmlns="http://www.w3.org/2000/svg">
<g clip-path="url(#clip0_4067_128862)">
<path d="M14.0892 30.2687L14.1868 30.1548L14.0892 30.2687C15.4133 31.4022 16.26 32.9639 16.5597 34.8171C15.8584 35.2674 15.392 36.0505 15.392 36.9411V37.654C15.392 38.7487 16.0963 39.681 17.0769 40.0327C16.9749 40.3056 16.9188 40.6004 16.9188 40.9081V41.621C16.9188 43.0169 18.0636 44.1501 19.4682 44.1501H24.5319C25.9365 44.1501 27.0813 43.0169 27.0813 41.621V40.9081C27.0813 40.6004 27.0252 40.3056 26.9232 40.0327C27.9038 39.681 28.6081 38.7488 28.6081 37.654V36.9411C28.6081 36.0505 28.1416 35.2674 27.4404 34.8171C27.7401 32.9639 28.5869 31.4022 29.9108 30.2687C32.5713 27.991 34.0984 24.7151 34.0984 21.2803C34.0984 18.0648 32.8613 15.0857 30.6135 12.8944C28.3653 10.7027 25.3051 9.49795 22 9.49795C18.6948 9.49795 15.6346 10.7027 13.3864 12.8944C11.1386 15.0857 9.90164 18.0648 9.90164 21.2803C9.90164 24.715 11.4288 27.9909 14.0892 30.2687ZM25.2769 41.6209V41.6323C25.2706 42.0235 24.9419 42.3457 24.5319 42.3457H19.4681C19.0541 42.3457 18.723 42.0172 18.723 41.6209V40.908C18.723 40.5116 19.0541 40.1831 19.4681 40.1831H24.5318C24.9458 40.1831 25.2769 40.5115 25.2769 40.908V41.6209ZM25.6791 34.4119H24.5364V26.7801H25.9028C27.4172 26.7801 28.6512 25.5586 28.6512 24.0543C28.6512 22.5499 27.4172 21.3284 25.9028 21.3284H25.4805C23.9662 21.3284 22.7321 22.5499 22.7321 24.0543V24.9758H21.3215V24.0543C21.3215 22.5499 20.0875 21.3284 18.5732 21.3284H18.1754C16.661 21.3284 15.427 22.5499 15.427 24.0543C15.427 25.5587 16.661 26.7801 18.1754 26.7801H19.5172V34.4119H18.3207C17.9373 32.1897 16.8927 30.2938 15.2624 28.898C13.0011 26.962 11.7056 24.1851 11.7056 21.2803C11.7056 15.5935 16.1241 11.3022 21.9998 11.3022C27.8755 11.3022 32.294 15.5935 32.294 21.2803C32.2942 24.1851 30.9987 26.9619 28.7374 28.898C27.107 30.2938 26.0624 32.1897 25.6791 34.4119ZM26.8037 37.6539C26.8037 38.0503 26.4726 38.3788 26.0586 38.3788H24.5318H19.4681H17.9413C17.5273 38.3788 17.1961 38.0503 17.1961 37.6539V36.941C17.1961 36.5447 17.5273 36.2162 17.9413 36.2162H26.0586C26.4726 36.2162 26.8037 36.5447 26.8037 36.941V37.6539ZM19.5173 24.9758H18.1755C17.652 24.9758 17.2314 24.5593 17.2314 24.0543C17.2314 23.5492 17.6521 23.1327 18.1755 23.1327H18.5733C19.0967 23.1327 19.5173 23.5491 19.5173 24.0543V24.9758ZM22.7322 34.4119H21.3216V26.7801H22.7322V34.4119ZM24.5365 24.9758V24.0543C24.5365 23.5491 24.9572 23.1327 25.4806 23.1327H25.9029C26.4263 23.1327 26.847 23.5491 26.847 24.0543C26.847 24.5594 26.4263 24.9758 25.9029 24.9758H24.5365Z" fill="black" stroke="black" stroke-width="0.3"/>
<mask id="path-2-outside-1_4067_128862" maskUnits="userSpaceOnUse" x="-0.153809" y="-1" width="44" height="40" fill="black">
<rect fill="white" x="-0.153809" y="-1" width="44" height="40"/>
<path d="M34.0456 38.0332C33.4875 38.0332 32.9463 37.8221 32.5291 37.4061L30.414 35.2968L31.4762 34.2317L33.5913 36.341C33.8784 36.6273 34.2628 36.5433 34.5227 36.376L37.1154 33.8766C37.3946 33.5943 37.3138 33.2184 37.1498 32.9618L35.0849 30.9026C34.828 30.6465 34.7906 30.2436 34.9957 29.9445C36.1212 28.3041 36.9344 26.3923 37.3473 24.4158C37.4202 24.0672 37.7274 23.8174 38.0835 23.8174H41.0255C41.2742 23.7742 41.6497 23.5959 41.6497 23.1634V19.5268C41.6173 19.3403 41.4794 18.906 40.9037 18.906H37.9073C37.5397 18.906 37.226 18.6404 37.1654 18.2779C36.8533 16.4106 36.0691 14.4736 34.8977 12.6761C34.7033 12.3779 34.7446 11.9843 34.9967 11.7329L37.1118 9.62359C37.3969 9.33919 37.3135 8.95823 37.1468 8.70053L34.6405 6.11506C34.3557 5.83489 33.9763 5.91603 33.7176 6.08084L31.6526 8.14009C31.3969 8.39516 30.9959 8.4323 30.6976 8.22885C29.0523 7.10619 27.1347 6.29501 25.1521 5.88312C24.8031 5.81063 24.5529 5.5031 24.5529 5.14668V2.15835C24.5529 1.76715 24.2582 1.50427 23.983 1.50427H20.3359C20.0873 1.54743 19.7118 1.72578 19.7118 2.15835V5.2344C19.7118 5.6022 19.4458 5.91603 19.083 5.97638C17.2099 6.28777 15.2669 7.06999 13.4641 8.23853C13.1667 8.43136 12.7749 8.39027 12.524 8.14L10.4089 6.03073C10.1217 5.74454 9.73739 5.8284 9.47743 5.99575L6.88463 8.4952C6.60558 8.77744 6.68644 9.15332 6.8505 9.40979L8.9154 11.4691C9.17225 11.7252 9.20967 12.1281 9.00452 12.4271C7.87905 14.0675 7.06589 15.9793 6.65297 17.9559C6.58011 18.3046 6.27286 18.5543 5.91672 18.5543H2.97474C2.72606 18.5974 2.35046 18.7758 2.35046 19.2084V22.8447C2.3939 23.0923 2.5731 23.4657 3.0084 23.4657H6.00472C6.37223 23.4657 6.68597 23.7313 6.74661 24.0939C7.05865 25.9612 7.84285 27.8983 9.0144 29.6956C9.20873 29.9938 9.16746 30.3875 8.9154 30.6389L6.80029 32.7481C6.51514 33.0325 6.59853 33.4135 6.76541 33.6712L9.27163 36.2568C9.55659 36.5368 9.93586 36.4557 10.1946 36.291L12.2596 34.2316L13.3218 35.2967L11.2067 37.406C11.1774 37.4353 11.1458 37.4621 11.112 37.486C10.1717 38.1559 8.97651 38.0869 8.20566 37.3181C8.20265 37.3151 8.19974 37.3121 8.19673 37.309L5.64097 34.6726C5.61511 34.6459 5.59123 34.6173 5.56952 34.5871C4.89645 33.6474 4.96574 32.4532 5.73799 31.683L7.42786 29.9978C6.44594 28.3766 5.74777 26.6597 5.38327 24.97H3.0084C1.90247 24.97 0.995585 24.1386 0.85202 22.9931C0.848166 22.9621 0.846191 22.9309 0.846191 22.8996V19.2084C0.846191 18.1042 1.67928 17.1989 2.82723 17.0557C2.85806 17.0519 2.88918 17.0499 2.9203 17.0499H5.31699C5.7504 15.2999 6.46823 13.6097 7.41883 12.1009L5.73809 10.4248C5.70866 10.3956 5.68187 10.3639 5.6577 10.3302C4.98464 9.39052 5.05393 8.19632 5.82618 7.42622C5.82919 7.42321 5.8322 7.4203 5.8353 7.41729L8.47916 4.86858C8.50595 4.84282 8.53453 4.81903 8.56481 4.7975C9.50507 4.12763 10.7003 4.19664 11.4712 4.96551L13.1632 6.65284C14.7898 5.67262 16.5125 4.97585 18.2077 4.6122V2.15835C18.2077 1.05412 19.0408 0.148829 20.1887 0.00582906C20.2194 0.00197436 20.2505 0 20.2815 0H23.983C25.1266 0 26.0571 0.968188 26.0571 2.15835V4.5461C27.813 4.97849 29.5086 5.6949 31.0223 6.64391L32.7054 4.96551C32.7347 4.93627 32.7663 4.90948 32.8001 4.8855C33.7403 4.21563 34.9355 4.28464 35.7064 5.05342C35.7094 5.05643 35.7124 5.05944 35.7153 5.06254L38.2711 7.69915C38.297 7.72585 38.3208 7.75444 38.3426 7.78471C39.0156 8.72441 38.9462 9.91862 38.1741 10.6887L36.4843 12.3739C37.4661 13.9951 38.1643 15.7122 38.5289 17.4017H40.9038C42.0794 17.4017 43.0023 18.2146 43.1482 19.3786C43.1521 19.4096 43.1541 19.441 43.1541 19.4722V23.1634C43.1541 24.2675 42.321 25.1728 41.173 25.316C41.1422 25.3198 41.1111 25.3218 41.08 25.3218H38.6833C38.2499 27.0718 37.532 28.762 36.5814 30.2708L38.2622 31.9469C38.2916 31.9762 38.3184 32.0078 38.3426 32.0415C39.0156 32.9812 38.9463 34.1754 38.1741 34.9456C38.1711 34.9486 38.1681 34.9515 38.165 34.9545L35.5211 37.5032C35.4943 37.529 35.4657 37.5528 35.4355 37.5743C35.0039 37.8814 34.5187 38.0332 34.0456 38.0332Z"/>
</mask>
<path d="M34.0456 38.0332C33.4875 38.0332 32.9463 37.8221 32.5291 37.4061L30.414 35.2968L31.4762 34.2317L33.5913 36.341C33.8784 36.6273 34.2628 36.5433 34.5227 36.376L37.1154 33.8766C37.3946 33.5943 37.3138 33.2184 37.1498 32.9618L35.0849 30.9026C34.828 30.6465 34.7906 30.2436 34.9957 29.9445C36.1212 28.3041 36.9344 26.3923 37.3473 24.4158C37.4202 24.0672 37.7274 23.8174 38.0835 23.8174H41.0255C41.2742 23.7742 41.6497 23.5959 41.6497 23.1634V19.5268C41.6173 19.3403 41.4794 18.906 40.9037 18.906H37.9073C37.5397 18.906 37.226 18.6404 37.1654 18.2779C36.8533 16.4106 36.0691 14.4736 34.8977 12.6761C34.7033 12.3779 34.7446 11.9843 34.9967 11.7329L37.1118 9.62359C37.3969 9.33919 37.3135 8.95823 37.1468 8.70053L34.6405 6.11506C34.3557 5.83489 33.9763 5.91603 33.7176 6.08084L31.6526 8.14009C31.3969 8.39516 30.9959 8.4323 30.6976 8.22885C29.0523 7.10619 27.1347 6.29501 25.1521 5.88312C24.8031 5.81063 24.5529 5.5031 24.5529 5.14668V2.15835C24.5529 1.76715 24.2582 1.50427 23.983 1.50427H20.3359C20.0873 1.54743 19.7118 1.72578 19.7118 2.15835V5.2344C19.7118 5.6022 19.4458 5.91603 19.083 5.97638C17.2099 6.28777 15.2669 7.06999 13.4641 8.23853C13.1667 8.43136 12.7749 8.39027 12.524 8.14L10.4089 6.03073C10.1217 5.74454 9.73739 5.8284 9.47743 5.99575L6.88463 8.4952C6.60558 8.77744 6.68644 9.15332 6.8505 9.40979L8.9154 11.4691C9.17225 11.7252 9.20967 12.1281 9.00452 12.4271C7.87905 14.0675 7.06589 15.9793 6.65297 17.9559C6.58011 18.3046 6.27286 18.5543 5.91672 18.5543H2.97474C2.72606 18.5974 2.35046 18.7758 2.35046 19.2084V22.8447C2.3939 23.0923 2.5731 23.4657 3.0084 23.4657H6.00472C6.37223 23.4657 6.68597 23.7313 6.74661 24.0939C7.05865 25.9612 7.84285 27.8983 9.0144 29.6956C9.20873 29.9938 9.16746 30.3875 8.9154 30.6389L6.80029 32.7481C6.51514 33.0325 6.59853 33.4135 6.76541 33.6712L9.27163 36.2568C9.55659 36.5368 9.93586 36.4557 10.1946 36.291L12.2596 34.2316L13.3218 35.2967L11.2067 37.406C11.1774 37.4353 11.1458 37.4621 11.112 37.486C10.1717 38.1559 8.97651 38.0869 8.20566 37.3181C8.20265 37.3151 8.19974 37.3121 8.19673 37.309L5.64097 34.6726C5.61511 34.6459 5.59123 34.6173 5.56952 34.5871C4.89645 33.6474 4.96574 32.4532 5.73799 31.683L7.42786 29.9978C6.44594 28.3766 5.74777 26.6597 5.38327 24.97H3.0084C1.90247 24.97 0.995585 24.1386 0.85202 22.9931C0.848166 22.9621 0.846191 22.9309 0.846191 22.8996V19.2084C0.846191 18.1042 1.67928 17.1989 2.82723 17.0557C2.85806 17.0519 2.88918 17.0499 2.9203 17.0499H5.31699C5.7504 15.2999 6.46823 13.6097 7.41883 12.1009L5.73809 10.4248C5.70866 10.3956 5.68187 10.3639 5.6577 10.3302C4.98464 9.39052 5.05393 8.19632 5.82618 7.42622C5.82919 7.42321 5.8322 7.4203 5.8353 7.41729L8.47916 4.86858C8.50595 4.84282 8.53453 4.81903 8.56481 4.7975C9.50507 4.12763 10.7003 4.19664 11.4712 4.96551L13.1632 6.65284C14.7898 5.67262 16.5125 4.97585 18.2077 4.6122V2.15835C18.2077 1.05412 19.0408 0.148829 20.1887 0.00582906C20.2194 0.00197436 20.2505 0 20.2815 0H23.983C25.1266 0 26.0571 0.968188 26.0571 2.15835V4.5461C27.813 4.97849 29.5086 5.6949 31.0223 6.64391L32.7054 4.96551C32.7347 4.93627 32.7663 4.90948 32.8001 4.8855C33.7403 4.21563 34.9355 4.28464 35.7064 5.05342C35.7094 5.05643 35.7124 5.05944 35.7153 5.06254L38.2711 7.69915C38.297 7.72585 38.3208 7.75444 38.3426 7.78471C39.0156 8.72441 38.9462 9.91862 38.1741 10.6887L36.4843 12.3739C37.4661 13.9951 38.1643 15.7122 38.5289 17.4017H40.9038C42.0794 17.4017 43.0023 18.2146 43.1482 19.3786C43.1521 19.4096 43.1541 19.441 43.1541 19.4722V23.1634C43.1541 24.2675 42.321 25.1728 41.173 25.316C41.1422 25.3198 41.1111 25.3218 41.08 25.3218H38.6833C38.2499 27.0718 37.532 28.762 36.5814 30.2708L38.2622 31.9469C38.2916 31.9762 38.3184 32.0078 38.3426 32.0415C39.0156 32.9812 38.9463 34.1754 38.1741 34.9456C38.1711 34.9486 38.1681 34.9515 38.165 34.9545L35.5211 37.5032C35.4943 37.529 35.4657 37.5528 35.4355 37.5743C35.0039 37.8814 34.5187 38.0332 34.0456 38.0332Z" fill="black"/>
<path d="M34.0456 38.0332C33.4875 38.0332 32.9463 37.8221 32.5291 37.4061L30.414 35.2968L31.4762 34.2317L33.5913 36.341C33.8784 36.6273 34.2628 36.5433 34.5227 36.376L37.1154 33.8766C37.3946 33.5943 37.3138 33.2184 37.1498 32.9618L35.0849 30.9026C34.828 30.6465 34.7906 30.2436 34.9957 29.9445C36.1212 28.3041 36.9344 26.3923 37.3473 24.4158C37.4202 24.0672 37.7274 23.8174 38.0835 23.8174H41.0255C41.2742 23.7742 41.6497 23.5959 41.6497 23.1634V19.5268C41.6173 19.3403 41.4794 18.906 40.9037 18.906H37.9073C37.5397 18.906 37.226 18.6404 37.1654 18.2779C36.8533 16.4106 36.0691 14.4736 34.8977 12.6761C34.7033 12.3779 34.7446 11.9843 34.9967 11.7329L37.1118 9.62359C37.3969 9.33919 37.3135 8.95823 37.1468 8.70053L34.6405 6.11506C34.3557 5.83489 33.9763 5.91603 33.7176 6.08084L31.6526 8.14009C31.3969 8.39516 30.9959 8.4323 30.6976 8.22885C29.0523 7.10619 27.1347 6.29501 25.1521 5.88312C24.8031 5.81063 24.5529 5.5031 24.5529 5.14668V2.15835C24.5529 1.76715 24.2582 1.50427 23.983 1.50427H20.3359C20.0873 1.54743 19.7118 1.72578 19.7118 2.15835V5.2344C19.7118 5.6022 19.4458 5.91603 19.083 5.97638C17.2099 6.28777 15.2669 7.06999 13.4641 8.23853C13.1667 8.43136 12.7749 8.39027 12.524 8.14L10.4089 6.03073C10.1217 5.74454 9.73739 5.8284 9.47743 5.99575L6.88463 8.4952C6.60558 8.77744 6.68644 9.15332 6.8505 9.40979L8.9154 11.4691C9.17225 11.7252 9.20967 12.1281 9.00452 12.4271C7.87905 14.0675 7.06589 15.9793 6.65297 17.9559C6.58011 18.3046 6.27286 18.5543 5.91672 18.5543H2.97474C2.72606 18.5974 2.35046 18.7758 2.35046 19.2084V22.8447C2.3939 23.0923 2.5731 23.4657 3.0084 23.4657H6.00472C6.37223 23.4657 6.68597 23.7313 6.74661 24.0939C7.05865 25.9612 7.84285 27.8983 9.0144 29.6956C9.20873 29.9938 9.16746 30.3875 8.9154 30.6389L6.80029 32.7481C6.51514 33.0325 6.59853 33.4135 6.76541 33.6712L9.27163 36.2568C9.55659 36.5368 9.93586 36.4557 10.1946 36.291L12.2596 34.2316L13.3218 35.2967L11.2067 37.406C11.1774 37.4353 11.1458 37.4621 11.112 37.486C10.1717 38.1559 8.97651 38.0869 8.20566 37.3181C8.20265 37.3151 8.19974 37.3121 8.19673 37.309L5.64097 34.6726C5.61511 34.6459 5.59123 34.6173 5.56952 34.5871C4.89645 33.6474 4.96574 32.4532 5.73799 31.683L7.42786 29.9978C6.44594 28.3766 5.74777 26.6597 5.38327 24.97H3.0084C1.90247 24.97 0.995585 24.1386 0.85202 22.9931C0.848166 22.9621 0.846191 22.9309 0.846191 22.8996V19.2084C0.846191 18.1042 1.67928 17.1989 2.82723 17.0557C2.85806 17.0519 2.88918 17.0499 2.9203 17.0499H5.31699C5.7504 15.2999 6.46823 13.6097 7.41883 12.1009L5.73809 10.4248C5.70866 10.3956 5.68187 10.3639 5.6577 10.3302C4.98464 9.39052 5.05393 8.19632 5.82618 7.42622C5.82919 7.42321 5.8322 7.4203 5.8353 7.41729L8.47916 4.86858C8.50595 4.84282 8.53453 4.81903 8.56481 4.7975C9.50507 4.12763 10.7003 4.19664 11.4712 4.96551L13.1632 6.65284C14.7898 5.67262 16.5125 4.97585 18.2077 4.6122V2.15835C18.2077 1.05412 19.0408 0.148829 20.1887 0.00582906C20.2194 0.00197436 20.2505 0 20.2815 0H23.983C25.1266 0 26.0571 0.968188 26.0571 2.15835V4.5461C27.813 4.97849 29.5086 5.6949 31.0223 6.64391L32.7054 4.96551C32.7347 4.93627 32.7663 4.90948 32.8001 4.8855C33.7403 4.21563 34.9355 4.28464 35.7064 5.05342C35.7094 5.05643 35.7124 5.05944 35.7153 5.06254L38.2711 7.69915C38.297 7.72585 38.3208 7.75444 38.3426 7.78471C39.0156 8.72441 38.9462 9.91862 38.1741 10.6887L36.4843 12.3739C37.4661 13.9951 38.1643 15.7122 38.5289 17.4017H40.9038C42.0794 17.4017 43.0023 18.2146 43.1482 19.3786C43.1521 19.4096 43.1541 19.441 43.1541 19.4722V23.1634C43.1541 24.2675 42.321 25.1728 41.173 25.316C41.1422 25.3198 41.1111 25.3218 41.08 25.3218H38.6833C38.2499 27.0718 37.532 28.762 36.5814 30.2708L38.2622 31.9469C38.2916 31.9762 38.3184 32.0078 38.3426 32.0415C39.0156 32.9812 38.9463 34.1754 38.1741 34.9456C38.1711 34.9486 38.1681 34.9515 38.165 34.9545L35.5211 37.5032C35.4943 37.529 35.4657 37.5528 35.4355 37.5743C35.0039 37.8814 34.5187 38.0332 34.0456 38.0332Z" stroke="black" stroke-width="0.6" mask="url(#path-2-outside-1_4067_128862)"/>
</g>
<defs>
<clipPath id="clip0_4067_128862">
<rect width="44" height="44" fill="white"/>
</clipPath>
</defs>
</svg>
