<svg width="20" height="20" viewBox="0 0 20 20" fill="none" xmlns="http://www.w3.org/2000/svg">
<g clip-path="url(#clip0_2102_46975)">
<path d="M10.3686 4.00338L5.7789 10.1038C5.12495 10.9729 5.74604 12.2172 6.83386 12.2172H8.77081L7.97374 15.153C7.68921 16.201 9.06171 16.8744 9.71698 16.0097L14.2185 10.0689C14.8773 9.20029 14.257 7.95154 13.1666 7.95154H11.2663L12.1541 4.89701C12.4683 3.81651 11.0462 3.10287 10.3686 4.00338ZM13.1666 9.12346C13.2901 9.12346 13.3592 9.2626 13.2848 9.36068C13.2848 9.36076 13.2847 9.36088 13.2846 9.36096L9.3512 14.5521L10.1025 11.7847C10.2036 11.4123 9.92265 11.0453 9.53702 11.0453H6.83386C6.71093 11.0453 6.64136 10.9066 6.7153 10.8083L10.7897 5.39287L9.92315 8.37397C9.87171 8.55096 9.90655 8.74186 10.0172 8.88928C10.1279 9.03666 10.3015 9.12342 10.4858 9.12342H13.1666V9.12346Z" fill="#7E8189"/>
<path d="M2.99715 15.9581C4.39422 17.5988 6.32715 18.7013 8.43981 19.0625C8.75828 19.117 9.06152 18.9032 9.11613 18.5838C9.17066 18.2648 8.95633 17.962 8.63738 17.9075C4.7784 17.2475 1.97754 13.922 1.97754 10C1.97754 6.5275 4.17344 3.52293 7.3552 2.42172L7.14535 2.79418C6.98652 3.07614 7.08629 3.43344 7.36824 3.59227C7.65027 3.75117 8.00754 3.65125 8.16637 3.36942L9.0491 1.80258C9.20512 1.52559 9.11031 1.17563 8.84129 1.01324L7.30137 0.0842997C7.02422 -0.0828096 6.66414 0.00621382 6.49699 0.283362C6.32984 0.560433 6.41895 0.92055 6.69602 1.08774L7.0384 1.2943C5.48051 1.82524 4.07832 2.77227 2.99715 4.04188C1.58395 5.70141 0.805664 7.81735 0.805664 10C0.805664 12.1827 1.58395 14.2986 2.99715 15.9581Z" fill="#7E8189"/>
<path d="M11.5607 0.93743C11.2419 0.882899 10.939 1.09723 10.8845 1.41622C10.8299 1.73516 11.0443 2.03798 11.3632 2.09251C15.2222 2.75247 18.023 6.07802 18.023 9.99997C18.023 13.4725 15.8271 16.477 12.6454 17.5783L12.8552 17.2057C13.0141 16.9238 12.9143 16.5665 12.6324 16.4077C12.3504 16.2488 11.9931 16.3486 11.8343 16.6305L10.9515 18.1974C10.7959 18.4735 10.8889 18.8234 11.1593 18.9867L12.6992 19.9157C12.9764 20.0829 13.3365 19.9936 13.5036 19.7166C13.6707 19.4395 13.5816 19.0794 13.3045 18.9122L12.9621 18.7057C14.52 18.1747 15.9222 17.2277 17.0034 15.9581C18.4166 14.2985 19.1949 12.1825 19.1949 9.99993C19.1949 7.81731 18.4166 5.70134 17.0034 4.0418C15.6064 2.40122 13.6734 1.29872 11.5607 0.93743Z" fill="#7E8189"/>
</g>
<defs>
<clipPath id="clip0_2102_46975">
<rect width="20" height="20" fill="white"/>
</clipPath>
</defs>
</svg>
