<svg width="20" height="20" viewBox="0 0 20 20" fill="none" xmlns="http://www.w3.org/2000/svg">
<path d="M16.0625 8.08333C16.0625 10.2531 14.8109 12.5638 13.3002 14.3838C12.5549 15.2818 11.7739 16.0266 11.1095 16.54C10.7766 16.7972 10.4852 16.9867 10.2525 17.1082C9.99505 17.2426 9.89122 17.25 9.90625 17.25V18.75C10.2666 18.75 10.6376 18.5993 10.9466 18.438C11.2804 18.2637 11.6474 18.02 12.0266 17.7269C12.7866 17.1397 13.6459 16.316 14.4544 15.3419C16.0516 13.4177 17.5625 10.77 17.5625 8.08333H16.0625ZM9.90625 17.25C9.92128 17.25 9.81745 17.2426 9.55996 17.1082C9.32726 16.9867 9.03595 16.7972 8.70299 16.54C8.0386 16.0266 7.2576 15.2818 6.51226 14.3838C5.00157 12.5638 3.75 10.2531 3.75 8.08333H2.25C2.25 10.77 3.76093 13.4177 5.35805 15.3419C6.16662 16.316 7.02585 17.1397 7.78588 17.7269C8.16513 18.02 8.53207 18.2637 8.86589 18.438C9.17493 18.5993 9.54591 18.75 9.90625 18.75V17.25ZM3.75 8.08333C3.75 4.56752 6.52403 1.75 9.90625 1.75V0.25C5.66003 0.25 2.25 3.77512 2.25 8.08333H3.75ZM9.90625 1.75C13.2885 1.75 16.0625 4.56752 16.0625 8.08333H17.5625C17.5625 3.77512 14.1525 0.25 9.90625 0.25V1.75Z" fill="#2B3F6C"/>
<circle r="2.65625" transform="matrix(-1 0 0 1 9.90625 7.90625)" stroke="#2B3F6C" stroke-width="1.5"/>
</svg>
