<svg width="40" height="40" viewBox="0 0 40 40" fill="none" xmlns="http://www.w3.org/2000/svg">
<path d="M3.78501 33.8119C5.04862 33.8191 6.99743 33.8305 7.98503 33.8305C8.01083 33.8305 8.03183 33.8305 8.06063 33.8305C8.3709 33.8309 8.6792 33.8797 8.97444 33.9751L21.0267 37.8595C21.486 38.0071 21.9742 38.0418 22.4497 37.9605C22.9253 37.8792 23.3743 37.6845 23.7585 37.3927L37.2316 27.1585C37.4461 26.9921 37.6242 26.7834 37.7549 26.5454C37.8856 26.3074 37.966 26.0452 37.9914 25.7749C38.0167 25.5045 37.9863 25.2319 37.902 24.9738C37.8178 24.7157 37.6815 24.4776 37.5016 24.2743L37.4812 24.2509C37.1673 23.9022 36.7392 23.6772 36.274 23.6164C35.8088 23.5557 35.3372 23.6633 34.9444 23.9197L34.3546 24.2935C34.3816 24.0181 34.4002 23.7409 34.4002 23.4595C34.4002 19.9866 32.0566 15.7794 29.0086 13.5282C29.2254 13.3334 29.3913 13.0884 29.4915 12.8147C29.5917 12.541 29.6234 12.2469 29.5836 11.9581C29.5438 11.6693 29.4338 11.3947 29.2633 11.1583C29.0927 10.9219 28.8668 10.7309 28.6054 10.602L29.7694 6.49976C29.8593 6.18533 29.875 5.85434 29.8154 5.53278C29.7558 5.21123 29.6224 4.90789 29.4258 4.64658C29.2291 4.38528 28.9746 4.17314 28.6821 4.02682C28.3896 3.88051 28.0672 3.80402 27.7401 3.80335H26.9511C26.7181 3.2675 26.3335 2.81138 25.8448 2.49102C25.3561 2.17066 24.7845 2 24.2001 2C23.6158 2 23.0441 2.17066 22.5554 2.49102C22.0667 2.81138 21.6822 3.2675 21.4491 3.80335H20.6601C20.3332 3.80407 20.0109 3.88055 19.7186 4.0268C19.4262 4.17304 19.1717 4.38507 18.9751 4.64622C18.7785 4.90738 18.6451 5.21055 18.5854 5.53195C18.5256 5.85334 18.5412 6.18421 18.6309 6.49856L19.7949 10.602C19.5334 10.7309 19.3075 10.9219 19.137 11.1583C18.9665 11.3947 18.8565 11.6693 18.8167 11.9581C18.7769 12.2469 18.8085 12.541 18.9087 12.8147C19.009 13.0884 19.1748 13.3334 19.3917 13.5282C16.4691 15.6834 14.2023 19.6434 14.0199 23.0239C13.3491 22.9714 12.6771 23.1086 12.0807 23.4199L9.11844 25.0399C8.67751 25.2791 8.18368 25.4041 7.68203 25.4035H3.80001C3.32262 25.4035 2.86478 25.5931 2.52721 25.9307C2.18964 26.2683 2 26.7261 2 27.2035L2 32.0119C2.00092 32.4864 2.18881 32.9415 2.52294 33.2784C2.85707 33.6153 3.31052 33.807 3.78501 33.8119ZM20.6001 12.8034C20.441 12.8034 20.2884 12.7402 20.1758 12.6277C20.0633 12.5151 20.0001 12.3625 20.0001 12.2034C20.0001 12.0443 20.0633 11.8917 20.1758 11.7791C20.2884 11.6666 20.441 11.6034 20.6001 11.6034H27.8001C27.9593 11.6034 28.1119 11.6666 28.2244 11.7791C28.3369 11.8917 28.4002 12.0443 28.4002 12.2034C28.4002 12.3625 28.3369 12.5151 28.2244 12.6277C28.1119 12.7402 27.9593 12.8034 27.8001 12.8034H20.6001ZM19.9353 5.36336C20.0198 5.2511 20.1293 5.16011 20.2551 5.09761C20.3809 5.03512 20.5196 5.00284 20.6601 5.00336H21.2001V7.40337C21.2001 7.5625 21.2633 7.71511 21.3758 7.82764C21.4884 7.94016 21.641 8.00337 21.8001 8.00337C21.9592 8.00337 22.1119 7.94016 22.2244 7.82764C22.3369 7.71511 22.4001 7.5625 22.4001 7.40337V5.00336C22.4001 4.85096 22.4193 4.69917 22.4571 4.55155C22.4568 4.54756 22.4568 4.54355 22.4571 4.53955C22.4571 4.53235 22.4631 4.52695 22.4643 4.51975C22.569 4.14131 22.7945 3.80748 23.1066 3.56913C23.4186 3.33079 23.8 3.20101 24.1927 3.19959C24.5853 3.19816 24.9676 3.32516 25.2814 3.56123C25.5952 3.7973 25.8231 4.12948 25.9305 4.50715C25.9305 4.51855 25.9395 4.52755 25.9419 4.53895C25.9443 4.55035 25.9419 4.54735 25.9419 4.55155C25.9802 4.69912 25.9998 4.85091 26.0001 5.00336V7.40337C26.0001 7.5625 26.0634 7.71511 26.1759 7.82764C26.2884 7.94016 26.441 8.00337 26.6001 8.00337C26.7593 8.00337 26.9119 7.94016 27.0244 7.82764C27.1369 7.71511 27.2001 7.5625 27.2001 7.40337V5.00336H27.7401C27.8816 5.00405 28.0209 5.0375 28.1472 5.1011C28.2735 5.16469 28.3833 5.2567 28.4681 5.36989C28.5529 5.48308 28.6102 5.61438 28.6357 5.75347C28.6612 5.89257 28.6541 6.03568 28.615 6.17156L27.4149 10.4034H20.9853L19.7853 6.17036C19.7454 6.0335 19.7381 5.88917 19.7642 5.74899C19.7902 5.60882 19.8488 5.47673 19.9353 5.36336ZM20.8401 14.0034H27.5661C30.631 15.8226 33.2002 20.112 33.2002 23.4595C33.1979 24.0336 33.1251 24.6053 32.9836 25.1617L29.7742 27.1933C29.7332 26.6994 29.5265 26.2338 29.1877 25.8721C28.8489 25.5104 28.3977 25.2738 27.9075 25.2007L27.1767 25.0849C27.1851 24.9913 27.2001 24.9001 27.2001 24.8035C27.1993 24.1121 26.9601 23.4423 26.5229 22.9067C26.0857 22.3712 25.4773 22.0027 24.8001 21.8635V18.3138C25.1499 18.4375 25.4529 18.6662 25.6677 18.9686C25.8825 19.2711 25.9986 19.6325 26.0001 20.0034C26.0001 20.1626 26.0634 20.3152 26.1759 20.4277C26.2884 20.5402 26.441 20.6034 26.6001 20.6034C26.7593 20.6034 26.9119 20.5402 27.0244 20.4277C27.1369 20.3152 27.2001 20.1626 27.2001 20.0034C27.1993 19.3121 26.9601 18.6422 26.5229 18.1067C26.0857 17.5711 25.4773 17.2027 24.8001 17.0634V17.0034C24.8001 16.8443 24.7369 16.6917 24.6244 16.5792C24.5119 16.4666 24.3593 16.4034 24.2001 16.4034C24.041 16.4034 23.8884 16.4666 23.7759 16.5792C23.6633 16.6917 23.6001 16.8443 23.6001 17.0034V17.0634C22.9219 17.2011 22.3122 17.5691 21.8743 18.1049C21.4363 18.6407 21.1971 19.3114 21.1971 20.0034C21.1971 20.6955 21.4363 21.3662 21.8743 21.902C22.3122 22.4378 22.9219 22.8058 23.6001 22.9435V24.5185L15.2127 23.1889C15.3441 19.8834 17.8503 15.7746 20.8401 14.0034ZM23.6001 21.6931C23.2494 21.5709 22.9454 21.3426 22.7303 21.0398C22.5151 20.737 22.3995 20.3748 22.3995 20.0034C22.3995 19.632 22.5151 19.2698 22.7303 18.9671C22.9454 18.6643 23.2494 18.436 23.6001 18.3138V21.6931ZM24.8001 23.1139C25.1499 23.2375 25.4529 23.4662 25.6677 23.7686C25.8825 24.0711 25.9986 24.4325 26.0001 24.8035C26.0001 24.8365 25.9941 24.8635 25.9929 24.8971L24.8001 24.7081V23.1139ZM3.20001 27.2035C3.20001 27.0444 3.26322 26.8917 3.37574 26.7792C3.48827 26.6667 3.64088 26.6035 3.80001 26.6035H7.68203C8.38492 26.6029 9.0765 26.4265 9.69384 26.0905L12.6471 24.4783C13.0997 24.2407 13.6164 24.1539 14.1219 24.2305L27.7227 26.3863C27.9752 26.4255 28.2036 26.5584 28.3623 26.7586C28.521 26.9588 28.5983 27.2115 28.5788 27.4662C28.5593 27.7209 28.4445 27.9589 28.2572 28.1327C28.0699 28.3064 27.824 28.4031 27.5685 28.4035H15.8001C15.6409 28.4035 15.4883 28.4667 15.3758 28.5792C15.2633 28.6918 15.2001 28.8444 15.2001 29.0035C15.2001 29.1626 15.2633 29.3152 15.3758 29.4278C15.4883 29.5403 15.6409 29.6035 15.8001 29.6035H18.5985L22.1469 32.2993C22.3885 32.4816 22.6798 32.586 22.9821 32.5988C23.2844 32.6115 23.5835 32.532 23.8395 32.3707L35.593 24.9307C35.745 24.8307 35.9273 24.7874 36.1081 24.8085C36.2888 24.8295 36.4563 24.9136 36.5812 25.0459C36.5859 25.0519 36.5909 25.0578 36.5962 25.0633C36.6686 25.1431 36.7238 25.2369 36.7584 25.3389C36.793 25.4409 36.8063 25.5489 36.7974 25.6563C36.7885 25.7636 36.7576 25.868 36.7067 25.9629C36.6558 26.0578 36.5859 26.1413 36.5014 26.2081L23.0331 36.4375C22.8025 36.6123 22.5332 36.7289 22.2479 36.7775C21.9627 36.8261 21.67 36.8052 21.3945 36.7165L9.34044 32.8327C8.92697 32.6991 8.49516 32.6309 8.06063 32.6305H8.05403C7.10843 32.6221 5.08582 32.6191 3.79401 32.6119C3.63623 32.6099 3.48562 32.5457 3.37478 32.4334C3.26394 32.3211 3.20179 32.1697 3.20181 32.0119L3.20001 27.2035ZM25.9671 29.6035L23.1975 31.3573C23.1481 31.388 23.0906 31.403 23.0325 31.4006C22.9744 31.3981 22.9184 31.3782 22.8717 31.3435L20.5821 29.6035H25.9671Z" fill="black"/>
</svg>
