<svg width="24" height="24" viewBox="0 0 24 24" fill="none" xmlns="http://www.w3.org/2000/svg">
<path d="M12 9.02361C10.9165 7.0621 9.21407 5.77629 7.01815 5.77629C3.71875 5.77629 1.33301 8.5203 1.33301 11.8874C1.33301 15.9491 5.37628 19.0009 8.9483 21.9988C9.50863 22.4692 10.0881 22.9555 10.6895 23.4671C11.529 24.1812 12.7886 24.177 13.6195 23.4576C19.8296 18.0814 22.667 15.6583 22.667 11.8874C22.667 8.52213 20.283 5.77625 16.9819 5.77625C14.7853 5.77634 13.0832 7.0629 12 9.02361ZM12 11.2983C12.7755 11.2983 13.4065 11.9293 13.4065 12.7048C13.4065 13.4803 12.7755 14.1112 12 14.1112C11.2245 14.1112 10.5936 13.4803 10.5936 12.7048C10.5936 11.9293 11.2245 11.2983 12 11.2983ZM12.699 22.3943C12.3883 22.6634 11.9161 22.6641 11.6008 22.3959C10.9958 21.8812 9.23775 20.4056 8.94225 20.1565C9.11046 20.0637 9.2684 19.947 9.40999 19.8054C9.81987 19.3955 10.0434 18.8266 10.0234 18.2444C10.0136 17.9598 9.94565 17.6823 9.82826 17.4278C10.4998 17.0969 11.2387 16.9241 12 16.9241C12.7935 16.9241 13.5601 17.1112 14.2523 17.4687C13.8763 18.2566 14.0047 19.2201 14.6575 19.8729C14.8114 20.0268 14.9837 20.151 15.167 20.2474C14.4203 20.9041 13.5992 21.615 12.699 22.3943ZM16.982 7.18278C19.4212 7.18278 21.2606 9.20537 21.2606 11.8875C21.2606 14.193 19.8693 15.9854 16.6567 18.9167C16.5628 18.9457 16.0779 19.3042 15.6521 18.8784C15.3675 18.5938 15.3869 18.1234 15.6851 17.8523C18.5099 15.2853 19.8542 13.734 19.8542 11.8609H18.4478C18.4478 12.9888 17.6464 14.1229 15.2018 16.3872C14.2337 15.8173 13.1382 15.5176 12 15.5176C10.8932 15.5176 9.82301 15.8025 8.87287 16.344C6.81117 14.5146 5.55222 13.106 5.55222 11.8609H4.14579C4.14579 13.7303 5.69554 15.4455 8.37241 17.7765C8.68206 18.0461 8.70292 18.5234 8.41549 18.8109C7.97608 19.2501 7.39742 18.8383 7.40211 18.8382C4.52337 16.3188 2.73944 14.3203 2.73944 11.8875C2.73944 9.20537 4.57888 7.18278 7.01815 7.18278C9.23137 7.18278 10.424 8.93102 10.9705 10.0879C9.92741 10.4997 9.18716 11.5171 9.18716 12.7048C9.18716 14.2558 10.449 15.5177 12 15.5177C13.5511 15.5177 14.8129 14.2558 14.8129 12.7048C14.8129 11.5171 14.0726 10.4998 13.0295 10.0879C13.5761 8.93098 14.7687 7.18278 16.982 7.18278Z" fill="black"/>
<path d="M5.67103 0C4.91844 0 4.20941 0.303603 3.67459 0.854879C3.14811 1.39753 2.85815 2.10951 2.85815 2.85975C2.85815 4.41077 4.12001 5.67263 5.67103 5.67263C7.22205 5.67263 8.4839 4.41077 8.4839 2.85975C8.4839 2.10951 8.19394 1.39753 7.66746 0.854879C7.13264 0.303603 6.42361 0 5.67103 0ZM5.67103 4.26619C4.89552 4.26619 4.26459 3.63526 4.26459 2.85975C4.26459 2.07196 4.90865 1.40644 5.67103 1.40644C6.43341 1.40644 7.07746 2.07196 7.07746 2.85975C7.07746 3.63526 6.44654 4.26619 5.67103 4.26619Z" fill="black"/>
<path d="M21.1419 2.85975C21.1419 2.10951 20.8519 1.39753 20.3254 0.854879C19.7906 0.303603 19.0816 0 18.329 0C17.5764 0 16.8674 0.303603 16.3326 0.854879C15.8061 1.39753 15.5161 2.10951 15.5161 2.85975C15.5161 4.41077 16.778 5.67263 18.329 5.67263C19.88 5.67263 21.1419 4.41077 21.1419 2.85975ZM16.9226 2.85975C16.9226 2.07196 17.5666 1.40644 18.329 1.40644C19.0914 1.40644 19.7354 2.07196 19.7354 2.85975C19.7354 3.63526 19.1045 4.26619 18.329 4.26619C17.5535 4.26619 16.9226 3.63526 16.9226 2.85975Z" fill="black"/>
</svg>
