<svg width="40" height="40" viewBox="0 0 40 40" fill="none" xmlns="http://www.w3.org/2000/svg">
<path d="M14.3943 22.632C14.5244 22.894 14.7912 23.0597 15.0836 23.0597H17.9389V29.0856C17.9389 29.4162 18.1499 29.7098 18.4633 29.8153C18.5438 29.8421 18.6264 29.8549 18.7082 29.8549C18.9447 29.8549 19.1737 29.7459 19.3218 29.5503L26.3442 20.2628C26.5205 20.0294 26.5495 19.7177 26.4194 19.4558C26.2893 19.1951 26.0229 19.0294 25.731 19.0294H22.5007L23.0981 12.8478C23.131 12.5063 22.9332 12.1832 22.6128 12.058C22.2932 11.9327 21.9284 12.0338 21.72 12.3076L14.4717 21.8241C14.295 22.0571 14.2647 22.3705 14.3943 22.632ZM21.3069 15.3898L20.8879 19.7243C20.8673 19.9406 20.9385 20.1551 21.084 20.316C21.2299 20.4764 21.437 20.5674 21.6537 20.5674H24.1847L19.4778 26.7933V22.2905C19.4778 21.8654 19.1337 21.5212 18.7086 21.5212H16.6365L21.3069 15.3898Z" fill="black"/>
<path d="M32.8132 22.8831C32.8132 16.1921 21.3851 3.27032 20.8989 2.7235C20.6167 2.4057 20.1301 2.37669 19.8128 2.65977C19.495 2.94241 19.4668 3.42812 19.749 3.74592C19.8646 3.87559 31.2747 16.7705 31.2747 22.8831C31.2747 28.2488 27.393 32.7217 22.2901 33.6505L24.5486 31.269C24.8409 30.9609 24.8282 30.4738 24.52 30.182C24.2119 29.8901 23.7253 29.902 23.4326 30.2101L19.8071 34.0338C19.7486 34.087 19.6998 34.1499 19.6602 34.2185C19.655 34.2272 19.651 34.2356 19.6457 34.2444C19.6268 34.2804 19.6115 34.3182 19.5983 34.3569C19.5904 34.3793 19.5829 34.4017 19.5772 34.4246C19.5723 34.4453 19.5697 34.4659 19.5671 34.4875C19.5526 34.5758 19.5482 34.665 19.5653 34.7552C19.6119 34.9991 19.7737 35.2048 19.9987 35.309L25.0427 37.6338C25.1468 37.6817 25.2563 37.705 25.364 37.705C25.655 37.705 25.9332 37.5393 26.0629 37.2576C26.2409 36.8712 26.0721 36.4145 25.6866 36.2369L23.1143 35.0514C28.6616 33.7811 32.8132 28.8092 32.8132 22.8831Z" fill="black"/>
<path d="M17.1314 34.9586C17.1969 34.9758 17.2628 34.9837 17.3275 34.9837C17.6686 34.9837 17.9802 34.7551 18.0708 34.4101C18.1789 33.9995 17.9332 33.5788 17.5226 33.4707C12.7191 32.2079 9.36439 27.8536 9.36439 22.8835C9.36922 18.8083 14.5002 11.6584 17.7855 7.49753L17.7903 10.4259C17.7912 10.8509 18.1354 11.1942 18.5596 11.1942H18.5609C18.9859 11.1934 19.3297 10.8483 19.3288 10.4232L19.3204 5.40961C19.3332 5.30896 19.3266 5.20698 19.3002 5.10983C19.2998 5.10808 19.2998 5.10632 19.2993 5.10456C19.2936 5.08566 19.2861 5.06852 19.2791 5.04961C19.2321 4.90192 19.1442 4.76874 19.018 4.67203C18.8277 4.52786 18.582 4.47906 18.3503 4.5406L12.8932 6.01489C12.4826 6.12566 12.2404 6.54808 12.3512 6.95819C12.462 7.3683 12.8857 7.60874 13.2945 7.49972L16.5064 6.63247C12.7472 11.3955 7.8312 18.4672 7.82593 22.8821C7.82637 28.5525 11.6527 33.5182 17.1314 34.9586Z" fill="black"/>
</svg>
