<svg width="58" height="58" viewBox="0 0 58 58" fill="none" xmlns="http://www.w3.org/2000/svg">
<path d="M49.8438 12.9838H10.875C9.37334 12.9838 8.15625 14.2009 8.15625 15.7025V21.14H49.8438V12.9838Z" fill="#D1D5DB"/>
<path d="M49.8438 11.455C49.8438 9.9533 48.6267 8.73621 47.125 8.73621C43.2925 8.73621 36.3832 8.73621 32.9159 8.73621C31.6154 8.73621 30.4137 9.43311 29.7685 10.5623C28.6982 12.4364 27.1875 15.08 27.1875 15.08H49.8438V11.455Z" fill="#D1D5DB"/>
<path d="M8.15625 15.5312H49.8438V17.2196H8.15625V15.5312Z" fill="#D1D5DB"/>
<path d="M52.896 20.763C53.0401 19.7245 52.7274 18.6741 52.0396 17.8839C51.3508 17.0927 50.354 16.6387 49.3054 16.6387C40.0653 16.6387 17.9347 16.6387 8.69456 16.6387C7.64603 16.6387 6.64916 17.0927 5.96041 17.8839C5.27256 18.6741 4.95991 19.7245 5.104 20.763C6.02294 27.3786 7.80644 40.2184 8.62841 46.138C8.87763 47.9297 10.4092 49.2637 12.219 49.2637H45.781C47.5908 49.2637 49.1224 47.9297 49.3716 46.138C50.1936 40.2184 51.9771 27.3786 52.896 20.763Z" fill="#D1D5DB"/>
<path d="M5.4085 22.9561C5.47647 22.2012 5.77916 21.4799 6.28575 20.898C6.97359 20.1078 7.97047 19.6538 9.019 19.6538H48.981C50.0295 19.6538 51.0264 20.1078 51.7143 20.898C52.2208 21.4799 52.5235 22.2012 52.5915 22.9561L52.896 20.763C53.0401 19.7245 52.7274 18.6741 52.0396 17.8839C51.3508 17.0927 50.354 16.6387 49.3054 16.6387C40.0653 16.6387 17.9347 16.6387 8.69456 16.6387C7.64603 16.6387 6.64916 17.0927 5.96041 17.8839C5.27256 18.6741 4.95991 19.7245 5.104 20.763L5.4085 22.9561Z" fill="#F6F8FC"/>
<path d="M24.9229 40.2247C24.9229 39.2242 24.1118 38.4122 23.1104 38.4122C21.0994 38.4122 17.8722 38.4122 15.8604 38.4122C14.8599 38.4122 14.0479 39.2242 14.0479 40.2247V42.0372C14.0479 43.0386 14.8599 43.8497 15.8604 43.8497H23.1104C24.1118 43.8497 24.9229 43.0386 24.9229 42.0372C24.9229 41.4545 24.9229 40.8084 24.9229 40.2247Z" fill="#434449"/>
<path d="M38.5156 23.2C33.2639 23.2 29 27.4639 29 32.7156C29 37.9673 33.2639 42.2312 38.5156 42.2312C43.7673 42.2312 48.0312 37.9673 48.0312 32.7156C48.0312 27.4639 43.7673 23.2 38.5156 23.2ZM38.5156 25.9187C42.2666 25.9187 45.3125 28.9646 45.3125 32.7156C45.3125 36.4665 42.2666 39.5124 38.5156 39.5124C34.7647 39.5124 31.7188 36.4665 31.7188 32.7156C31.7188 28.9646 34.7647 25.9187 38.5156 25.9187Z" fill="#434449"/>
<path d="M43.4721 39.2868L51.9256 47.7403C52.4566 48.2714 53.3176 48.2714 53.8486 47.7403C54.3788 47.2102 54.3788 46.3483 53.8486 45.8182L45.3951 37.3647C44.8641 36.8345 44.0031 36.8345 43.4721 37.3647C42.9419 37.8948 42.9419 38.7567 43.4721 39.2868Z" fill="#434449"/>
</svg>
