<svg width="32" height="32" viewBox="0 0 32 32" fill="none" xmlns="http://www.w3.org/2000/svg">
<path d="M6.83333 0C6.00491 0 5.33333 0.671573 5.33333 1.5V6.66667H1.5C0.671574 6.66667 0 7.33824 0 8.16667V17.1667C0 17.9951 0.671573 18.6667 1.5 18.6667H5.33333V30.5C5.33333 31.3284 6.00491 32 6.83333 32H23.1716C23.702 32 24.2107 31.7893 24.5858 31.4142L31.4142 24.5858C31.7893 24.2107 32 23.702 32 23.1716V1.5C32 0.671573 31.3284 0 30.5 0H6.83333ZM1.33333 17.3333V8H21.3333V17.3333H1.33333ZM24 30.1147V24H30.1147L24 30.1147ZM30.6667 22.6667H24.1667C23.3382 22.6667 22.6667 23.3382 22.6667 24.1667V30.6667H6.66667V18.6667H22.6667V6.66667H6.66667V1.33333H30.6667V22.6667Z" fill="#434449"/>
<path d="M7.57065 10.9043C7.51732 10.699 7.42932 10.5163 7.30665 10.3563C7.18398 10.1963 7.02398 10.067 6.82265 9.96831C6.62132 9.86965 6.37598 9.82031 6.08265 9.82031H4.06665V15.5323H5.21865V13.2523H5.83465C6.10665 13.2523 6.35465 13.215 6.57865 13.147C6.80265 13.079 6.99332 12.9736 7.15065 12.835C7.30798 12.6976 7.43065 12.519 7.51865 12.3003C7.60665 12.0816 7.65065 11.8256 7.65065 11.5323C7.65065 11.319 7.62265 11.1083 7.57065 10.9043ZM6.28665 12.1976C6.14665 12.3363 5.95998 12.407 5.73065 12.407H5.21865V10.6696H5.69865C5.98665 10.6696 6.19198 10.7456 6.31465 10.8936C6.43732 11.043 6.49865 11.2616 6.49865 11.5496C6.49865 11.843 6.42798 12.059 6.28665 12.1976Z" fill="#434449"/>
<path d="M12.78 11.4536C12.732 11.111 12.6414 10.8203 12.504 10.5776C12.368 10.3336 12.1774 10.1483 11.932 10.0176C11.6854 9.88698 11.364 9.82031 10.9627 9.82031H9.07471V15.5323H10.8934C11.2774 15.5323 11.5947 15.4736 11.8454 15.3563C12.096 15.239 12.296 15.0616 12.4454 14.8203C12.5947 14.5803 12.7 14.2736 12.7614 13.9043C12.8227 13.5336 12.852 13.0976 12.852 12.5963C12.852 12.1763 12.828 11.795 12.78 11.4536ZM11.6627 13.6056C11.64 13.8683 11.592 14.079 11.5187 14.239C11.4467 14.399 11.3494 14.5136 11.2267 14.583C11.104 14.6523 10.9414 14.687 10.7387 14.687H10.2267V10.6696H10.7134C10.932 10.6696 11.1067 10.7123 11.2374 10.795C11.3694 10.8763 11.4667 10.999 11.5347 11.1616C11.6014 11.3243 11.6454 11.5283 11.6667 11.7736C11.6867 12.0203 11.6987 12.3056 11.6987 12.631C11.6987 13.0203 11.6867 13.3456 11.6627 13.6056Z" fill="#434449"/>
<path d="M17.6026 10.7643V9.82031H14.4106V15.5323H15.5626V13.0523H17.4826V12.1083H15.5626V10.7643H17.6026Z" fill="#434449"/>
</svg>
