<svg width="20" height="20" viewBox="0 0 20 20" fill="none" xmlns="http://www.w3.org/2000/svg">
<path d="M12.295 8.33333C13.1 8.33333 13.7533 8.98667 13.7533 9.79167V13.7492C13.7533 14.7439 13.3581 15.698 12.6547 16.4014C11.9513 17.1048 10.9972 17.5 10.0025 17.5C9.00768 17.5 8.05364 17.1048 7.35022 16.4014C6.6468 15.698 6.25163 14.7439 6.25163 13.7492V9.79167C6.25163 8.98667 6.90413 8.33333 7.70996 8.33333H12.295ZM12.295 9.58333H7.70996C7.65471 9.58333 7.60172 9.60528 7.56264 9.64435C7.52357 9.68342 7.50163 9.73641 7.50163 9.79167V13.7492C7.50163 14.4124 7.76511 15.0485 8.2341 15.5175C8.7031 15.9865 9.3392 16.25 10.0025 16.25C10.6657 16.25 11.3018 15.9865 11.7708 15.5175C12.2398 15.0485 12.5033 14.4124 12.5033 13.7492V9.79167C12.5033 9.73641 12.4813 9.68342 12.4423 9.64435C12.4032 9.60528 12.3502 9.58333 12.295 9.58333ZM3.12496 8.33333H5.94246C5.64846 8.68841 5.46891 9.12421 5.42746 9.58333H3.12496C3.06971 9.58333 3.01672 9.60528 2.97765 9.64435C2.93858 9.68342 2.91663 9.73641 2.91663 9.79167V12.4992C2.91657 12.8141 2.98788 13.1249 3.12519 13.4083C3.26249 13.6917 3.46223 13.9403 3.7094 14.1354C3.95657 14.3305 4.24474 14.4671 4.55226 14.5348C4.85979 14.6026 5.17867 14.5998 5.48496 14.5267C5.55579 14.9467 5.68496 15.3475 5.86246 15.72C5.36853 15.8521 4.85082 15.8689 4.34937 15.769C3.84792 15.6691 3.37617 15.4552 2.97058 15.1439C2.565 14.8326 2.23645 14.4321 2.01035 13.9735C1.78424 13.5149 1.66664 13.0105 1.66663 12.4992V9.79167C1.66663 8.98667 2.31996 8.33333 3.12496 8.33333ZM14.0625 8.33333H16.875C17.68 8.33333 18.3333 8.98667 18.3333 9.79167V12.5C18.3334 13.011 18.216 13.5151 17.9903 13.9735C17.7645 14.4319 17.4364 14.8323 17.0313 15.1436C16.6261 15.455 16.1548 15.6691 15.6538 15.7693C15.1527 15.8695 14.6354 15.8532 14.1416 15.7217C14.32 15.3483 14.4491 14.9475 14.5208 14.5275C14.8267 14.5998 15.145 14.6019 15.4518 14.5338C15.7587 14.4656 16.0461 14.3288 16.2926 14.1338C16.5391 13.9388 16.7383 13.6905 16.8752 13.4075C17.0122 13.1246 17.0833 12.8143 17.0833 12.5V9.79167C17.0833 9.73641 17.0613 9.68342 17.0223 9.64435C16.9832 9.60528 16.9302 9.58333 16.875 9.58333H14.5775C14.536 9.12421 14.3565 8.68841 14.0625 8.33333ZM9.99996 2.5C10.663 2.5 11.2989 2.76339 11.7677 3.23223C12.2366 3.70107 12.5 4.33696 12.5 5C12.5 5.66304 12.2366 6.29893 11.7677 6.76777C11.2989 7.23661 10.663 7.5 9.99996 7.5C9.33692 7.5 8.70103 7.23661 8.23219 6.76777C7.76335 6.29893 7.49996 5.66304 7.49996 5C7.49996 4.33696 7.76335 3.70107 8.23219 3.23223C8.70103 2.76339 9.33692 2.5 9.99996 2.5ZM15.4166 3.33333C15.9692 3.33333 16.4991 3.55283 16.8898 3.94353C17.2805 4.33423 17.5 4.86413 17.5 5.41667C17.5 5.9692 17.2805 6.4991 16.8898 6.88981C16.4991 7.28051 15.9692 7.5 15.4166 7.5C14.8641 7.5 14.3342 7.28051 13.9435 6.88981C13.5528 6.4991 13.3333 5.9692 13.3333 5.41667C13.3333 4.86413 13.5528 4.33423 13.9435 3.94353C14.3342 3.55283 14.8641 3.33333 15.4166 3.33333ZM4.58329 3.33333C5.13583 3.33333 5.66573 3.55283 6.05643 3.94353C6.44713 4.33423 6.66663 4.86413 6.66663 5.41667C6.66663 5.9692 6.44713 6.4991 6.05643 6.88981C5.66573 7.28051 5.13583 7.5 4.58329 7.5C4.03076 7.5 3.50085 7.28051 3.11015 6.88981C2.71945 6.4991 2.49996 5.9692 2.49996 5.41667C2.49996 4.86413 2.71945 4.33423 3.11015 3.94353C3.50085 3.55283 4.03076 3.33333 4.58329 3.33333ZM9.99996 3.75C9.66844 3.75 9.3505 3.8817 9.11608 4.11612C8.88166 4.35054 8.74996 4.66848 8.74996 5C8.74996 5.33152 8.88166 5.64946 9.11608 5.88388C9.3505 6.1183 9.66844 6.25 9.99996 6.25C10.3315 6.25 10.6494 6.1183 10.8838 5.88388C11.1183 5.64946 11.25 5.33152 11.25 5C11.25 4.66848 11.1183 4.35054 10.8838 4.11612C10.6494 3.8817 10.3315 3.75 9.99996 3.75ZM15.4166 4.58333C15.1956 4.58333 14.9836 4.67113 14.8274 4.82741C14.6711 4.98369 14.5833 5.19565 14.5833 5.41667C14.5833 5.63768 14.6711 5.84964 14.8274 6.00592C14.9836 6.1622 15.1956 6.25 15.4166 6.25C15.6376 6.25 15.8496 6.1622 16.0059 6.00592C16.1622 5.84964 16.25 5.63768 16.25 5.41667C16.25 5.19565 16.1622 4.98369 16.0059 4.82741C15.8496 4.67113 15.6376 4.58333 15.4166 4.58333ZM4.58329 4.58333C4.36228 4.58333 4.15032 4.67113 3.99404 4.82741C3.83776 4.98369 3.74996 5.19565 3.74996 5.41667C3.74996 5.63768 3.83776 5.84964 3.99404 6.00592C4.15032 6.1622 4.36228 6.25 4.58329 6.25C4.80431 6.25 5.01627 6.1622 5.17255 6.00592C5.32883 5.84964 5.41663 5.63768 5.41663 5.41667C5.41663 5.19565 5.32883 4.98369 5.17255 4.82741C5.01627 4.67113 4.80431 4.58333 4.58329 4.58333Z" fill="black"/>
</svg>
