<svg width="20" height="20" viewBox="0 0 20 20" fill="none" xmlns="http://www.w3.org/2000/svg">
<g clip-path="url(#clip0_3754_320551)">
<path d="M10 0C8.02219 0 6.08879 0.58649 4.4443 1.6853C2.79981 2.78412 1.51809 4.3459 0.761209 6.17316C0.00433283 8.00043 -0.1937 10.0111 0.192152 11.9509C0.578004 13.8907 1.53041 15.6725 2.92894 17.0711C4.32746 18.4696 6.10929 19.422 8.0491 19.8078C9.98891 20.1937 11.9996 19.9957 13.8268 19.2388C15.6541 18.4819 17.2159 17.2002 18.3147 15.5557C19.4135 13.9112 20 11.9778 20 10C19.9972 7.3487 18.9427 4.80681 17.0679 2.93206C15.1932 1.05731 12.6513 0.00283612 10 0ZM10 18.5714C8.30473 18.5714 6.64754 18.0687 5.23797 17.1269C3.82841 16.185 2.72979 14.8464 2.08104 13.2801C1.43229 11.7139 1.26254 9.99049 1.59327 8.3278C1.924 6.6651 2.74035 5.13782 3.93909 3.93908C5.13782 2.74035 6.66511 1.924 8.3278 1.59327C9.99049 1.26254 11.7139 1.43228 13.2801 2.08103C14.8464 2.72978 16.185 3.8284 17.1269 5.23797C18.0687 6.64753 18.5714 8.30473 18.5714 10C18.569 12.2725 17.6651 14.4513 16.0582 16.0582C14.4513 17.6651 12.2725 18.569 10 18.5714Z" fill="#7E8189"/>
<path d="M11.7857 9.2857H10.7142V7.14284H12.8571C13.0465 7.14284 13.2282 7.06758 13.3622 6.93363C13.4961 6.79967 13.5714 6.61799 13.5714 6.42855C13.5714 6.23911 13.4961 6.05743 13.3622 5.92348C13.2282 5.78952 13.0465 5.71427 12.8571 5.71427H10.7142V4.2857C10.7142 4.09626 10.639 3.91458 10.505 3.78062C10.3711 3.64667 10.1894 3.57141 9.99995 3.57141C9.81051 3.57141 9.62883 3.64667 9.49487 3.78062C9.36092 3.91458 9.28566 4.09626 9.28566 4.2857V5.71427H8.21423C7.55119 5.71427 6.91531 5.97766 6.44647 6.4465C5.97763 6.91534 5.71423 7.55123 5.71423 8.21427C5.71423 8.87731 5.97763 9.51319 6.44647 9.98203C6.91531 10.4509 7.55119 10.7143 8.21423 10.7143H9.28566V12.8571H7.1428C6.95336 12.8571 6.77168 12.9324 6.63773 13.0663C6.50377 13.2003 6.42852 13.382 6.42852 13.5714C6.42852 13.7608 6.50377 13.9425 6.63773 14.0765C6.77168 14.2104 6.95336 14.2857 7.1428 14.2857H9.28566V15.7143C9.28566 15.9037 9.36092 16.0854 9.49487 16.2193C9.62883 16.3533 9.81051 16.4286 9.99995 16.4286C10.1894 16.4286 10.3711 16.3533 10.505 16.2193C10.639 16.0854 10.7142 15.9037 10.7142 15.7143V14.2857H11.7857C12.4487 14.2857 13.0846 14.0223 13.5534 13.5535C14.0223 13.0846 14.2857 12.4487 14.2857 11.7857C14.2857 11.1227 14.0223 10.4868 13.5534 10.0179C13.0846 9.54909 12.4487 9.2857 11.7857 9.2857ZM9.28566 9.2857H8.21423C7.93007 9.2857 7.65755 9.17281 7.45662 8.97188C7.25569 8.77095 7.1428 8.49843 7.1428 8.21427C7.1428 7.93011 7.25569 7.65758 7.45662 7.45665C7.65755 7.25572 7.93007 7.14284 8.21423 7.14284H9.28566V9.2857ZM11.7857 12.8571H10.7142V10.7143H11.7857C12.0698 10.7143 12.3423 10.8271 12.5433 11.0281C12.7442 11.229 12.8571 11.5015 12.8571 11.7857C12.8571 12.0699 12.7442 12.3424 12.5433 12.5433C12.3423 12.7442 12.0698 12.8571 11.7857 12.8571Z" fill="#7E8189"/>
</g>
<defs>
<clipPath id="clip0_3754_320551">
<rect width="20" height="20" fill="white"/>
</clipPath>
</defs>
</svg>
