<svg width="40" height="40" viewBox="0 0 40 40" fill="none" xmlns="http://www.w3.org/2000/svg">
<path d="M28.8877 31.2995C28.7566 31.2993 28.628 31.2649 28.5143 31.1996C28.3618 31.1126 28.2439 30.9756 28.1807 30.8118C28.1175 30.648 28.1127 30.4674 28.1673 30.3004L30.1602 24.3481H26.5215C26.4019 24.3466 26.2843 24.317 26.1783 24.2616C26.0723 24.2063 25.9807 24.1268 25.9111 24.0295C25.8415 23.9323 25.7958 23.82 25.7776 23.7018C25.7594 23.5836 25.7692 23.4627 25.8063 23.349L28.7247 15.2829C28.7724 15.1316 28.8667 14.9992 28.9942 14.9048C29.1217 14.8103 29.2759 14.7586 29.4345 14.7571H35.329C35.4664 14.7567 35.6014 14.7935 35.7197 14.8635C35.8379 14.9335 35.935 15.0342 36.0008 15.1548C36.0665 15.2755 36.0984 15.4117 36.0931 15.5491C36.0877 15.6864 36.0454 15.8197 35.9705 15.9349L33.3992 19.989H37.2325C37.3789 19.9872 37.5226 20.0279 37.6464 20.106C37.7701 20.1842 37.8686 20.2966 37.9298 20.4296C37.991 20.5626 38.0123 20.7104 37.9912 20.8553C37.9701 21.0001 37.9075 21.1358 37.8109 21.2458L29.4503 31.0313C29.3807 31.1131 29.2946 31.1793 29.1976 31.2255C29.1007 31.2718 28.9951 31.297 28.8877 31.2995ZM27.5994 22.8232H31.2118C31.3319 22.8239 31.45 22.8529 31.5567 22.9079C31.6634 22.9629 31.7556 23.0424 31.8258 23.1397C31.896 23.2371 31.9423 23.3497 31.9608 23.4683C31.9792 23.5869 31.9695 23.7082 31.9322 23.8223L30.849 27.0666L35.5814 21.4981H32.0216C31.8859 21.4984 31.7527 21.4623 31.6358 21.3935C31.5189 21.3246 31.4226 21.2257 31.357 21.1069C31.2915 20.9881 31.259 20.8539 31.2631 20.7183C31.2671 20.5827 31.3075 20.4507 31.3801 20.3361L33.9514 16.282H29.9761L27.5994 22.8232Z" fill="black"/>
<path d="M26.2393 31.2995H4.73836C4.57969 31.298 4.42557 31.2463 4.29807 31.1519C4.17056 31.0574 4.0762 30.925 4.02849 30.7737C2.70985 27.162 2.65771 23.2094 3.88062 19.5642C5.10352 15.919 7.52888 12.7976 10.7589 10.7119C13.9889 8.6262 17.8318 7.70007 21.6573 8.0854C25.4828 8.47073 29.0639 10.1446 31.813 12.8326C31.9496 12.9738 32.0259 13.1624 32.026 13.3588C32.026 13.5552 31.9498 13.7439 31.8133 13.8851C31.6769 14.0264 31.4909 14.1091 31.2946 14.1158C31.0984 14.1225 30.9072 14.0526 30.7614 13.9211C28.2864 11.5138 25.0763 10.005 21.6434 9.63552C18.2106 9.26603 14.753 10.0571 11.8223 11.8826C8.89173 13.708 6.65707 16.4625 5.47503 19.7065C4.29299 22.9505 4.23172 26.497 5.30099 29.7799H26.2393C26.3444 29.7712 26.4502 29.7843 26.5499 29.8185C26.6497 29.8527 26.7412 29.9073 26.8188 29.9787C26.8965 30.0501 26.9584 30.1368 27.0008 30.2334C27.0431 30.33 27.065 30.4343 27.065 30.5397C27.065 30.6452 27.0431 30.7495 27.0008 30.8461C26.9584 30.9426 26.8965 31.0294 26.8188 31.1008C26.7412 31.1722 26.6497 31.2267 26.5499 31.2609C26.4502 31.2951 26.3444 31.3083 26.2393 31.2995Z" fill="black"/>
<path d="M35.2368 31.2996H32.2764C32.1713 31.3083 32.0655 31.2952 31.9658 31.261C31.866 31.2268 31.7744 31.1722 31.6968 31.1008C31.6192 31.0294 31.5573 30.9427 31.5149 30.8461C31.4726 30.7495 31.4507 30.6452 31.4507 30.5398C31.4507 30.4343 31.4726 30.33 31.5149 30.2334C31.5573 30.1369 31.6192 30.0501 31.6968 29.9787C31.7744 29.9073 31.866 29.8528 31.9658 29.8186C32.0655 29.7844 32.1713 29.7712 32.2764 29.78H34.6741C35.1747 28.2344 35.4284 26.6196 35.4261 24.995C35.4419 24.8044 35.5289 24.6267 35.6696 24.4972C35.8104 24.3677 35.9946 24.2958 36.1859 24.2958C36.3772 24.2958 36.5614 24.3677 36.7022 24.4972C36.8429 24.6267 36.9298 24.8044 36.9457 24.995C36.9457 26.9673 36.6023 28.9245 35.9309 30.779C35.8818 30.9261 35.7891 31.0547 35.6651 31.1477C35.5411 31.2407 35.3917 31.2937 35.2368 31.2996Z" fill="black"/>
<path d="M23.262 26.4197C23.0612 26.4197 22.8686 26.3399 22.7266 26.1979C22.5846 26.0559 22.5048 25.8633 22.5048 25.6625C22.5048 24.9805 22.2339 24.3265 21.7517 23.8443C21.2695 23.3621 20.6155 23.0912 19.9335 23.0912C19.2516 23.0912 18.5975 23.3621 18.1153 23.8443C17.6331 24.3265 17.3622 24.9805 17.3622 25.6625C17.3464 25.8531 17.2594 26.0308 17.1187 26.1603C16.9779 26.2898 16.7937 26.3617 16.6024 26.3617C16.4111 26.3617 16.2269 26.2898 16.0861 26.1603C15.9454 26.0308 15.8585 25.8531 15.8426 25.6625C15.8229 25.1133 15.9141 24.5657 16.1106 24.0525C16.3072 23.5393 16.6052 23.071 16.9868 22.6754C17.3684 22.2799 17.8257 21.9654 18.3315 21.7505C18.8374 21.5357 19.3813 21.4249 19.9309 21.4249C20.4804 21.4249 21.0244 21.5357 21.5302 21.7505C22.036 21.9654 22.4934 22.2799 22.875 22.6754C23.2566 23.071 23.5545 23.5393 23.7511 24.0525C23.9477 24.5657 24.0389 25.1133 24.0192 25.6625C24.0192 25.8633 23.9394 26.0559 23.7974 26.1979C23.6554 26.3399 23.4628 26.4197 23.262 26.4197Z" fill="black"/>
<path d="M18.4828 23.4171C18.3498 23.4169 18.2191 23.3818 18.1038 23.3154C17.9885 23.249 17.8925 23.1535 17.8255 23.0385L15.2858 18.6164C15.1854 18.442 15.1584 18.235 15.2106 18.0407C15.2629 17.8464 15.3902 17.6809 15.5645 17.5805C15.7388 17.4801 15.9459 17.453 16.1402 17.5053C16.3344 17.5576 16.5 17.6849 16.6004 17.8592L19.1401 22.2971C19.2066 22.4124 19.2416 22.5431 19.2415 22.6761C19.2415 22.8092 19.2064 22.9398 19.1397 23.055C19.0731 23.1701 18.9773 23.2657 18.862 23.332C18.7466 23.3984 18.6159 23.4332 18.4828 23.4329V23.4171Z" fill="black"/>
<path d="M19.99 13.7526C20.5562 13.7526 21.0153 13.2936 21.0153 12.7273C21.0153 12.161 20.5562 11.7019 19.99 11.7019C19.4237 11.7019 18.9646 12.161 18.9646 12.7273C18.9646 13.2936 19.4237 13.7526 19.99 13.7526Z" fill="black"/>
<path d="M7.58017 26.1623C8.14645 26.1623 8.60552 25.7032 8.60552 25.1369C8.60552 24.5706 8.14645 24.1116 7.58017 24.1116C7.01388 24.1116 6.55481 24.5706 6.55481 25.1369C6.55481 25.7032 7.01388 26.1623 7.58017 26.1623Z" fill="black"/>
<path d="M26.243 15.4407C26.8093 15.4407 27.2684 14.9817 27.2684 14.4154C27.2684 13.8491 26.8093 13.39 26.243 13.39C25.6767 13.39 25.2177 13.8491 25.2177 14.4154C25.2177 14.9817 25.6767 15.4407 26.243 15.4407Z" fill="black"/>
<path d="M9.2651 19.9105C9.83139 19.9105 10.2905 19.4514 10.2905 18.8851C10.2905 18.3188 9.83139 17.8597 9.2651 17.8597C8.69881 17.8597 8.23975 18.3188 8.23975 18.8851C8.23975 19.4514 8.69881 19.9105 9.2651 19.9105Z" fill="black"/>
<path d="M13.7047 15.4669C14.271 15.4669 14.73 15.0078 14.73 14.4415C14.73 13.8752 14.271 13.4161 13.7047 13.4161C13.1384 13.4161 12.6793 13.8752 12.6793 14.4415C12.6793 15.0078 13.1384 15.4669 13.7047 15.4669Z" fill="black"/>
</svg>
