<svg width="21" height="21" viewBox="0 0 21 21" fill="none" xmlns="http://www.w3.org/2000/svg">
<path d="M2.16797 2.99935C2.16797 2.53911 2.54106 2.16602 3.0013 2.16602H9.66797C9.88898 2.16602 10.1009 2.25381 10.2572 2.41009L18.5906 10.7434C18.916 11.0689 18.916 11.5965 18.5906 11.9219L11.9239 18.5886C11.5985 18.914 11.0708 18.914 10.7454 18.5886L2.41205 10.2553C2.25577 10.099 2.16797 9.88703 2.16797 9.66602V2.99935ZM3.83464 3.83268V9.32084L11.3346 16.8208L16.8228 11.3327L9.32279 3.83268H3.83464Z" fill="#7E8189"/>
<path d="M8.0013 6.74935C8.0013 7.4397 7.44166 7.99935 6.7513 7.99935C6.06095 7.99935 5.5013 7.4397 5.5013 6.74935C5.5013 6.05899 6.06095 5.49935 6.7513 5.49935C7.44166 5.49935 8.0013 6.05899 8.0013 6.74935Z" fill="#7E8189"/>
</svg>
