<svg width="18" height="18" viewBox="0 0 18 18" fill="none" xmlns="http://www.w3.org/2000/svg">
<path d="M9.33166 3.60293L5.20091 9.09328C4.61236 9.87555 5.17134 10.9953 6.15037 10.9953H7.89363L7.17627 13.6376C6.92019 14.5808 8.15544 15.1868 8.74519 14.4086L12.7965 9.06189C13.3895 8.28016 12.8312 7.15628 11.8498 7.15628H10.1396L10.9386 4.4072C11.2214 3.43474 9.94148 2.79248 9.33166 3.60293ZM11.8499 8.211C11.961 8.211 12.0232 8.33623 11.9562 8.42451C11.9562 8.42458 11.9561 8.42468 11.956 8.42475L8.41598 13.0967L9.09214 10.6062C9.18313 10.2709 8.93028 9.94065 8.58322 9.94065H6.15037C6.03974 9.94065 5.97712 9.81585 6.04367 9.72736L9.71061 4.85348L8.93074 7.53646C8.88444 7.69575 8.9158 7.86756 9.0154 8.00024C9.11499 8.13289 9.27123 8.21097 9.43713 8.21097H11.8499V8.211Z" fill="#7E8189"/>
<path d="M2.69743 14.3623C3.9548 15.8389 5.69443 16.8311 7.59582 17.1563C7.88245 17.2053 8.15537 17.0128 8.20452 16.7254C8.2536 16.4383 8.0607 16.1658 7.77364 16.1167C4.30056 15.5228 1.77979 12.5298 1.77979 9C1.77979 5.87475 3.75609 3.17064 6.61968 2.17955L6.43082 2.51476C6.28787 2.76852 6.37766 3.0901 6.63142 3.23304C6.88525 3.37606 7.20679 3.28613 7.34973 3.03248L8.14419 1.62232C8.28461 1.37303 8.19928 1.05807 7.95716 0.91192L6.57123 0.0758698C6.3218 -0.0745287 5.99773 0.00559244 5.84729 0.255026C5.69686 0.504389 5.77705 0.828495 6.02641 0.978963L6.33456 1.16487C4.93246 1.64271 3.67049 2.49504 2.69743 3.63769C1.42555 5.13127 0.725098 7.03561 0.725098 9C0.725098 10.9644 1.42555 12.8687 2.69743 14.3623Z" fill="#7E8189"/>
<path d="M10.4046 0.843565C10.1176 0.794487 9.84504 0.987389 9.79596 1.27447C9.74688 1.56153 9.93978 1.83406 10.2269 1.88314C13.6999 2.4771 16.2207 5.47009 16.2207 8.99985C16.2207 12.1251 14.2444 14.8292 11.3808 15.8203L11.5697 15.4851C11.7126 15.2313 11.6228 14.9097 11.3691 14.7668C11.1153 14.6238 10.7938 14.7136 10.6508 14.9673L9.85629 16.3775C9.71626 16.626 9.8 16.9409 10.0433 17.0879L11.4292 17.924C11.6788 18.0745 12.0028 17.9941 12.1531 17.7448C12.3036 17.4955 12.2234 17.1714 11.974 17.0209L11.6658 16.835C13.068 16.3571 14.33 15.5048 15.303 14.3621C16.5749 12.8685 17.2753 10.9642 17.2753 8.99981C17.2753 7.03546 16.5749 5.13108 15.303 3.6375C14.0457 2.16097 12.306 1.16872 10.4046 0.843565Z" fill="#7E8189"/>
</svg>
